<svg width="300" height="300" viewBox="0 0 300 300" fill="none" xmlns="http://www.w3.org/2000/svg">
<circle cx="150" cy="150" r="145" fill="#DAD326" stroke="black" stroke-width="10"/>
<path d="M103.612 219.684L97.5303 195.63L97.3203 194.631L97.1603 194.632L96.9703 195.633L91.4919 219.735L86.772 219.755L78.9712 191.788L82.5311 191.773L88.7783 216.387L88.9883 217.386L89.1883 217.385L89.3383 216.384L95.011 191.721L99.451 191.702L105.778 216.315L106.028 217.314L106.188 217.314L106.338 216.313L111.891 191.65L115.451 191.635L108.212 219.665L103.612 219.684ZM117.917 219.624L127.236 191.586L131.956 191.566L142.037 219.523L138.677 219.537L136.539 213.746L123.219 213.802L121.277 219.61L117.917 219.624ZM129.7 193.975L129.54 193.976C129.544 194.296 129.454 194.683 129.272 195.137L124.033 211.199L135.673 211.15L129.992 195.134C129.801 194.681 129.704 194.295 129.7 193.975ZM179.002 219.368L172.92 195.314L172.71 194.315L172.55 194.315L172.36 195.316L166.882 219.419L162.162 219.439L154.361 191.472L157.921 191.457L164.168 216.07L164.378 217.069L164.578 217.069L164.728 216.068L170.401 191.404L174.841 191.386L181.168 215.999L181.418 216.998L181.578 216.997L181.728 215.997L187.281 191.334L190.841 191.319L183.602 219.349L179.002 219.368ZM208.711 215.643L211.131 217.633L210.179 218.437C209.703 218.839 209.372 219.081 209.186 219.161C209.027 219.215 208.707 219.243 208.227 219.245L197.547 219.29C196.907 219.293 196.265 219.029 195.619 218.498L194.651 217.702C194.006 217.172 193.679 216.506 193.671 215.706L193.543 202.907C193.535 202.107 193.848 201.439 194.483 200.903L195.435 200.099C196.069 199.563 196.707 199.294 197.347 199.291L206.667 199.252C207.2 199.25 207.843 199.514 208.595 200.044L209.603 200.84C210.247 201.317 210.574 201.982 210.583 202.836L210.665 211.035L196.985 211.093L197.023 214.852C197.027 215.252 197.043 215.519 197.071 215.652C197.125 215.759 197.273 215.905 197.515 216.09C197.757 216.276 197.945 216.395 198.079 216.448C198.212 216.474 198.519 216.486 198.999 216.484L206.759 216.452C207.239 216.45 207.559 216.422 207.718 216.368C207.904 216.287 208.235 216.045 208.711 215.643ZM207.279 208.449L207.231 203.69C207.227 203.29 207.198 203.036 207.143 202.93C207.115 202.797 206.981 202.637 206.739 202.452C206.497 202.266 206.309 202.16 206.175 202.134C206.042 202.081 205.735 202.056 205.255 202.058L198.855 202.085C198.375 202.087 198.068 202.115 197.936 202.169C197.802 202.196 197.617 202.303 197.379 202.491C197.141 202.679 196.996 202.839 196.944 202.973C196.918 203.08 196.907 203.333 196.911 203.733L196.959 208.493L207.279 208.449ZM229.418 214.716L229.307 203.597C229.303 203.197 229.274 202.944 229.219 202.837C229.191 202.704 229.056 202.545 228.814 202.359C228.573 202.173 228.385 202.068 228.251 202.041C228.117 201.989 227.81 201.963 227.33 201.965L221.69 201.989C221.184 201.991 220.837 202.019 220.651 202.073C220.492 202.127 220.174 202.302 219.696 202.597C219.219 202.893 218.942 203.107 218.863 203.241C218.784 203.375 218.747 203.641 218.751 204.041L218.854 214.361C218.858 214.761 218.901 215.027 218.982 215.16C219.064 215.293 219.346 215.505 219.829 215.797C220.312 216.088 220.634 216.26 220.794 216.313C220.981 216.365 221.315 216.39 221.795 216.388L227.475 216.365C227.955 216.363 228.261 216.348 228.394 216.321C228.527 216.267 228.713 216.146 228.951 215.958C229.189 215.771 229.321 215.624 229.346 215.517C229.398 215.383 229.422 215.116 229.418 214.716ZM218.606 189.602L218.721 201.081L218.881 201.081C218.879 200.841 219.168 200.466 219.75 199.957C220.332 199.448 220.836 199.193 221.262 199.191L228.782 199.159C229.422 199.157 230.065 199.421 230.71 199.951L231.678 200.747C232.324 201.278 232.65 201.943 232.658 202.743L232.787 215.542C232.795 216.342 232.481 217.01 231.847 217.546L230.895 218.35C230.26 218.886 229.623 219.156 228.983 219.158L221.503 219.19C221.023 219.192 220.689 219.166 220.502 219.114C220.342 219.061 220.02 218.889 219.537 218.598C218.921 218.307 218.598 218.015 218.568 217.722L218.408 217.723L218.423 219.203L215.543 219.215L215.246 189.616L218.606 189.602ZM85.9964 234.158L85.8768 234.199C86.0699 234.838 86.1697 235.478 86.1761 236.118L86.4133 259.756L83.0533 259.77L82.7724 231.772L88.2123 231.749L96.9966 254.072C97.1611 254.525 97.2449 254.898 97.2478 255.191L97.4078 255.19C97.4049 254.897 97.4811 254.523 97.6366 254.069L106.012 231.674L111.412 231.652L111.693 259.65L108.333 259.664L108.096 236.025C108.089 235.386 108.176 234.745 108.357 234.104L108.236 234.065L98.6531 259.705L96.0932 259.716C94.8363 256.708 93.6337 253.793 92.4853 250.971C91.3636 248.149 90.4333 245.793 89.6943 243.903C88.9551 241.986 88.3116 240.309 87.7638 238.871C87.2157 237.406 86.791 236.275 86.4897 235.476C86.1883 234.677 86.0239 234.238 85.9964 234.158ZM132.157 257.964L131.997 257.965C132.001 258.285 131.711 258.62 131.127 258.969C130.65 259.264 130.319 259.439 130.133 259.493C129.973 259.547 129.653 259.575 129.173 259.577L122.334 259.606C121.694 259.608 121.051 259.344 120.406 258.814L119.438 258.018C118.792 257.487 118.466 256.822 118.457 256.022L118.409 251.222C118.401 250.422 118.715 249.754 119.349 249.218L120.301 248.414C120.936 247.878 121.573 247.609 122.213 247.606L129.373 247.576C129.88 247.574 130.2 247.599 130.334 247.652C130.468 247.678 130.642 247.784 130.857 247.97C131.18 248.235 131.342 248.501 131.345 248.768L131.505 248.767L131.457 244.007C131.453 243.607 131.424 243.354 131.37 243.248C131.342 243.115 131.207 242.955 130.965 242.769C130.723 242.584 130.535 242.478 130.402 242.452C130.268 242.399 129.961 242.374 129.481 242.376L123.001 242.403C122.521 242.405 122.188 242.446 122.002 242.527C121.843 242.581 121.525 242.809 121.049 243.211L118.629 241.221L119.581 240.417C120.057 240.015 120.375 239.787 120.534 239.733C120.72 239.652 121.053 239.611 121.533 239.609L130.933 239.57C131.573 239.567 132.216 239.831 132.861 240.362L133.829 241.157C134.474 241.688 134.801 242.353 134.809 243.153L134.929 255.113C134.933 255.513 134.949 255.779 134.977 255.913C135.031 256.019 135.179 256.165 135.421 256.351C135.663 256.536 135.798 256.696 135.826 256.829C135.881 256.935 135.91 257.189 135.914 257.589L135.933 259.548L134.533 259.554C134.053 259.556 133.72 259.531 133.533 259.479C133.372 259.399 133.13 259.227 132.807 258.962C132.377 258.617 132.161 258.284 132.157 257.964ZM121.778 252.048L121.809 255.168C121.813 255.568 121.829 255.834 121.857 255.968C121.911 256.074 122.06 256.22 122.301 256.406C122.543 256.591 122.731 256.711 122.865 256.763C122.999 256.789 123.305 256.801 123.785 256.799L128.665 256.779C129.145 256.777 129.465 256.749 129.625 256.695C129.811 256.641 130.142 256.466 130.619 256.171C131.096 255.875 131.374 255.661 131.453 255.527C131.532 255.394 131.569 255.127 131.565 254.727L131.538 252.007C131.534 251.607 131.504 251.354 131.45 251.247C131.422 251.114 131.287 250.955 131.045 250.769C130.803 250.583 130.616 250.478 130.482 250.451C130.348 250.399 130.041 250.373 129.561 250.375L123.721 250.4C123.241 250.402 122.935 250.43 122.802 250.484C122.669 250.511 122.483 250.618 122.245 250.806C122.007 250.994 121.862 251.154 121.81 251.288C121.785 251.395 121.774 251.648 121.778 252.048ZM153.353 247.875C153.993 247.873 154.636 248.137 155.281 248.667L156.249 249.463C156.895 249.994 157.221 250.659 157.229 251.459L157.273 255.859C157.281 256.659 156.968 257.327 156.333 257.863L155.381 258.667C154.747 259.203 154.11 259.472 153.47 259.475L144.59 259.512C143.95 259.515 143.307 259.251 142.662 258.72L141.694 257.924C141.048 257.394 140.722 256.728 140.714 255.928L140.697 254.329L144.057 254.314L144.065 255.074C144.069 255.474 144.085 255.741 144.113 255.874C144.168 255.981 144.316 256.127 144.558 256.312C144.799 256.498 144.987 256.617 145.121 256.67C145.255 256.696 145.562 256.708 146.042 256.706L151.961 256.681C152.441 256.679 152.748 256.665 152.881 256.637C153.014 256.583 153.199 256.463 153.437 256.275C153.676 256.087 153.807 255.94 153.833 255.833C153.885 255.7 153.909 255.433 153.905 255.033L153.872 251.793C153.844 251.58 153.681 251.341 153.385 251.075C153.143 250.89 152.956 250.784 152.822 250.758C152.688 250.705 152.381 250.68 151.901 250.682L144.901 250.711C144.261 250.714 143.619 250.45 142.973 249.919L142.005 249.123C141.36 248.592 141.033 247.927 141.025 247.127L140.985 243.127C140.977 242.327 141.29 241.659 141.925 241.123L142.877 240.319C143.512 239.783 144.149 239.514 144.789 239.511L153.269 239.476C153.909 239.473 154.552 239.737 155.197 240.268L156.165 241.064C156.81 241.594 157.137 242.26 157.145 243.06L157.161 244.659L153.801 244.674L153.793 243.914C153.789 243.514 153.76 243.26 153.706 243.154C153.678 243.021 153.543 242.861 153.301 242.676C153.059 242.49 152.871 242.384 152.738 242.358C152.604 242.305 152.297 242.28 151.817 242.282L146.297 242.305C145.817 242.307 145.511 242.335 145.378 242.389C145.245 242.416 145.059 242.524 144.821 242.711C144.583 242.899 144.438 243.06 144.386 243.193C144.36 243.3 144.35 243.553 144.354 243.953L144.377 246.273C144.381 246.673 144.397 246.94 144.425 247.073C144.479 247.179 144.627 247.325 144.869 247.511C145.111 247.697 145.299 247.816 145.433 247.869C145.566 247.895 145.873 247.907 146.353 247.905L153.353 247.875ZM166.46 233.821L166.516 239.42L171.636 239.399C171.985 239.664 172.187 239.876 172.242 240.036C172.324 240.169 172.367 240.542 172.374 241.156L172.384 242.196L166.544 242.22L166.672 254.979C166.676 255.379 166.692 255.646 166.72 255.779C166.774 255.886 166.923 256.032 167.164 256.217C167.406 256.403 167.594 256.522 167.728 256.575C167.862 256.601 168.168 256.613 168.648 256.611L172.288 256.596C172.638 256.861 172.84 257.074 172.895 257.233C172.976 257.366 173.02 257.739 173.026 258.353L173.037 259.393L167.197 259.417C166.557 259.42 165.914 259.156 165.269 258.625L164.301 257.829C163.655 257.299 163.329 256.634 163.321 255.834L163.184 242.234L161.264 242.242C160.915 241.977 160.699 241.778 160.618 241.645C160.563 241.485 160.533 241.099 160.526 240.485L160.516 239.445L163.156 239.434L163.1 233.835L166.46 233.821ZM192.237 255.712L194.657 257.702L193.706 258.506C193.23 258.908 192.899 259.149 192.713 259.23C192.553 259.284 192.234 259.312 191.754 259.314L181.074 259.359C180.434 259.362 179.791 259.098 179.146 258.567L178.178 257.771C177.532 257.241 177.206 256.575 177.198 255.775L177.069 242.976C177.061 242.176 177.374 241.508 178.009 240.972L178.961 240.168C179.596 239.632 180.233 239.363 180.873 239.36L190.193 239.321C190.726 239.319 191.369 239.583 192.121 240.113L193.129 240.909C193.774 241.386 194.1 242.051 194.109 242.904L194.191 251.104L180.511 251.161L180.549 254.921C180.553 255.321 180.569 255.588 180.597 255.721C180.652 255.827 180.8 255.974 181.042 256.159C181.283 256.345 181.471 256.464 181.605 256.517C181.739 256.543 182.046 256.555 182.526 256.553L190.285 256.52C190.765 256.518 191.085 256.49 191.245 256.436C191.431 256.356 191.761 256.114 192.237 255.712ZM190.805 248.518L190.757 243.758C190.753 243.359 190.724 243.105 190.67 242.999C190.642 242.866 190.507 242.706 190.265 242.521C190.023 242.335 189.835 242.229 189.702 242.203C189.568 242.15 189.261 242.125 188.781 242.127L182.381 242.154C181.901 242.156 181.595 242.184 181.462 242.238C181.329 242.265 181.143 242.372 180.905 242.56C180.667 242.748 180.522 242.908 180.47 243.042C180.444 243.148 180.434 243.402 180.438 243.802L180.485 248.562L190.805 248.518ZM198.869 239.284L200.269 239.279C200.749 239.277 201.069 239.315 201.23 239.395C201.417 239.447 201.672 239.606 201.995 239.871C202.425 240.216 202.642 240.549 202.645 240.869L202.805 240.868C202.802 240.548 203.092 240.213 203.675 239.864C204.152 239.569 204.47 239.394 204.63 239.34C204.816 239.286 205.149 239.258 205.629 239.256L209.309 239.241C209.949 239.238 210.591 239.502 211.237 240.033L212.205 240.828L209.825 242.838L209.341 242.441C209.099 242.255 208.911 242.149 208.778 242.123C208.644 242.07 208.337 242.045 207.857 242.047L206.137 242.054C205.657 242.056 205.324 242.084 205.138 242.138C204.978 242.192 204.66 242.367 204.183 242.662C203.706 242.957 203.428 243.172 203.349 243.306C203.271 243.439 203.233 243.706 203.237 244.106L203.389 259.265L200.029 259.279L199.873 243.72C199.869 243.32 199.84 243.067 199.786 242.961C199.758 242.827 199.623 242.668 199.381 242.482C199.139 242.297 198.991 242.151 198.936 242.044C198.908 241.911 198.892 241.644 198.888 241.244L198.869 239.284ZM228.392 247.56C229.032 247.558 229.674 247.822 230.32 248.352L231.288 249.148C231.933 249.679 232.26 250.344 232.268 251.144L232.312 255.544C232.32 256.344 232.006 257.012 231.372 257.548L230.42 258.352C229.785 258.888 229.148 259.157 228.508 259.16L219.628 259.197C218.988 259.2 218.345 258.936 217.7 258.405L216.732 257.609C216.087 257.079 215.76 256.413 215.752 255.613L215.736 254.014L219.096 253.999L219.103 254.759C219.107 255.159 219.123 255.426 219.151 255.559C219.206 255.666 219.354 255.812 219.596 255.997C219.838 256.183 220.026 256.302 220.16 256.355C220.293 256.381 220.6 256.393 221.08 256.391L227 256.366C227.48 256.364 227.786 256.35 227.919 256.322C228.052 256.269 228.238 256.148 228.476 255.96C228.714 255.772 228.846 255.625 228.871 255.518C228.923 255.385 228.947 255.118 228.943 254.718L228.911 251.478C228.882 251.265 228.72 251.026 228.424 250.76C228.182 250.575 227.994 250.469 227.86 250.443C227.727 250.39 227.42 250.365 226.94 250.367L219.94 250.396C219.3 250.399 218.657 250.135 218.012 249.604L217.044 248.808C216.398 248.277 216.072 247.612 216.064 246.812L216.024 242.812C216.015 242.012 216.329 241.345 216.963 240.809L217.915 240.005C218.55 239.469 219.187 239.199 219.827 239.197L228.307 239.161C228.947 239.158 229.59 239.422 230.235 239.953L231.203 240.749C231.849 241.279 232.175 241.945 232.183 242.745L232.199 244.345L228.839 244.359L228.832 243.599C228.828 243.199 228.799 242.945 228.744 242.839C228.716 242.706 228.581 242.546 228.339 242.361C228.098 242.175 227.91 242.069 227.776 242.043C227.642 241.99 227.335 241.965 226.855 241.967L221.335 241.99C220.855 241.992 220.549 242.02 220.416 242.074C220.283 242.101 220.098 242.209 219.859 242.396C219.621 242.584 219.476 242.745 219.424 242.878C219.399 242.985 219.388 243.238 219.392 243.638L219.415 245.958C219.419 246.358 219.435 246.625 219.463 246.758C219.518 246.864 219.666 247.01 219.908 247.196C220.149 247.382 220.337 247.501 220.471 247.554C220.605 247.58 220.912 247.592 221.392 247.59L228.392 247.56Z" fill="black"/>
<path d="M103.612 219.684L103.127 219.804L103.224 220.186L103.617 220.184L103.612 219.684ZM97.5303 195.63L97.041 195.73L97.0431 195.74L97.0456 195.75L97.5303 195.63ZM97.3203 194.631L97.8096 194.531L97.7252 194.129L97.3153 194.131L97.3203 194.631ZM97.1603 194.632L97.1553 194.132L96.7454 194.133L96.669 194.536L97.1603 194.632ZM96.9703 195.633L97.4579 195.746L97.4599 195.737L97.4616 195.729L96.9703 195.633ZM91.4919 219.735L91.497 220.235L91.8921 220.234L91.9796 219.849L91.4919 219.735ZM86.772 219.755L86.2904 219.887L86.3936 220.257L86.777 220.255L86.772 219.755ZM78.9712 191.788L78.9661 191.288L78.3141 191.291L78.4896 191.92L78.9712 191.788ZM82.5311 191.773L83.0157 191.653L82.919 191.272L82.5261 191.273L82.5311 191.773ZM88.7783 216.387L89.2676 216.287L89.2654 216.276L89.2629 216.266L88.7783 216.387ZM88.9883 217.386L88.499 217.486L88.5834 217.888L88.9933 217.886L88.9883 217.386ZM89.1883 217.385L89.1933 217.885L89.6197 217.883L89.6828 217.462L89.1883 217.385ZM89.3383 216.384L88.8509 216.27L88.8466 216.288L88.8437 216.307L89.3383 216.384ZM95.011 191.721L95.006 191.221L94.6119 191.222L94.5237 191.606L95.011 191.721ZM99.451 191.702L99.9352 191.58L99.8376 191.201L99.446 191.202L99.451 191.702ZM105.778 216.315L106.263 216.197L106.262 216.194L105.778 216.315ZM106.028 217.314L105.543 217.433L105.639 217.816L106.033 217.814L106.028 217.314ZM106.188 217.314L106.193 217.814L106.62 217.812L106.683 217.391L106.188 217.314ZM106.338 216.313L105.85 216.201L105.846 216.218L105.844 216.236L106.338 216.313ZM111.891 191.65L111.886 191.15L111.49 191.152L111.403 191.537L111.891 191.65ZM115.451 191.635L115.935 191.763L116.098 191.132L115.446 191.135L115.451 191.635ZM108.212 219.665L108.217 220.165L108.6 220.164L108.696 219.793L108.212 219.665ZM104.097 219.565L98.0151 195.51L97.0456 195.75L103.127 219.804L104.097 219.565ZM98.0196 195.53L97.8096 194.531L96.831 194.731L97.041 195.73L98.0196 195.53ZM97.3153 194.131L97.1553 194.132L97.1653 195.132L97.3253 195.131L97.3153 194.131ZM96.669 194.536L96.4791 195.537L97.4616 195.729L97.6516 194.728L96.669 194.536ZM96.4827 195.519L91.0043 219.622L91.9796 219.849L97.4579 195.746L96.4827 195.519ZM91.4869 219.235L86.767 219.255L86.777 220.255L91.497 220.235L91.4869 219.235ZM87.2536 219.623L79.4527 191.656L78.4896 191.92L86.2904 219.887L87.2536 219.623ZM78.9762 192.288L82.5361 192.273L82.5261 191.273L78.9661 191.288L78.9762 192.288ZM82.0465 191.893L88.2936 216.507L89.2629 216.266L83.0157 191.653L82.0465 191.893ZM88.289 216.487L88.499 217.486L89.4776 217.286L89.2676 216.287L88.289 216.487ZM88.9933 217.886L89.1933 217.885L89.1833 216.885L88.9833 216.886L88.9933 217.886ZM89.6828 217.462L89.8328 216.461L88.8437 216.307L88.6938 217.308L89.6828 217.462ZM89.8256 216.499L95.4984 191.836L94.5237 191.606L88.8509 216.27L89.8256 216.499ZM95.016 192.221L99.456 192.202L99.446 191.202L95.006 191.221L95.016 192.221ZM98.9667 191.824L105.294 216.437L106.262 216.194L99.9352 191.58L98.9667 191.824ZM105.293 216.434L105.543 217.433L106.513 217.196L106.263 216.197L105.293 216.434ZM106.033 217.814L106.193 217.814L106.183 216.814L106.023 216.814L106.033 217.814ZM106.683 217.391L106.833 216.39L105.844 216.236L105.694 217.237L106.683 217.391ZM106.826 216.426L112.379 191.762L111.403 191.537L105.85 216.201L106.826 216.426ZM111.896 192.15L115.456 192.135L115.446 191.135L111.886 191.15L111.896 192.15ZM114.967 191.507L107.728 219.537L108.696 219.793L115.935 191.763L114.967 191.507ZM108.207 219.165L103.607 219.184L103.617 220.184L108.217 220.165L108.207 219.165ZM117.917 219.624L117.443 219.464L117.222 220.127L117.922 220.124L117.917 219.624ZM127.236 191.586L127.231 191.086L126.874 191.087L126.762 191.425L127.236 191.586ZM131.956 191.566L132.427 191.399L132.306 191.064L131.951 191.066L131.956 191.566ZM142.037 219.523L142.042 220.023L142.747 220.02L142.507 219.356L142.037 219.523ZM138.677 219.537L138.208 219.708L138.33 220.039L138.682 220.037L138.677 219.537ZM136.539 213.746L137.008 213.576L136.886 213.245L136.534 213.246L136.539 213.746ZM123.219 213.802L123.214 213.302L122.858 213.304L122.745 213.641L123.219 213.802ZM121.277 219.61L121.282 220.11L121.639 220.109L121.752 219.771L121.277 219.61ZM129.7 193.975L130.2 193.973L130.195 193.473L129.695 193.475L129.7 193.975ZM129.54 193.976L129.535 193.476L129.035 193.478L129.04 193.978L129.54 193.976ZM129.272 195.137L128.808 194.949L128.802 194.964L128.797 194.979L129.272 195.137ZM124.033 211.199L123.558 211.041L123.342 211.702L124.038 211.699L124.033 211.199ZM135.673 211.15L135.678 211.65L136.379 211.647L136.144 210.985L135.673 211.15ZM129.992 195.134L130.463 194.969L130.458 194.955L130.452 194.942L129.992 195.134ZM118.392 219.785L127.711 191.746L126.762 191.425L117.443 219.464L118.392 219.785ZM127.241 192.086L131.961 192.066L131.951 191.066L127.231 191.086L127.241 192.086ZM131.486 191.733L141.567 219.69L142.507 219.356L132.427 191.399L131.486 191.733ZM142.032 219.023L138.672 219.037L138.682 220.037L142.042 220.023L142.032 219.023ZM139.146 219.367L137.008 213.576L136.07 213.917L138.208 219.708L139.146 219.367ZM136.534 213.246L123.214 213.302L123.224 214.302L136.544 214.246L136.534 213.246ZM122.745 213.641L120.803 219.449L121.752 219.771L123.693 213.963L122.745 213.641ZM121.272 219.11L117.912 219.124L117.922 220.124L121.282 220.11L121.272 219.11ZM129.695 193.475L129.535 193.476L129.545 194.476L129.705 194.475L129.695 193.475ZM129.04 193.978C129.043 194.207 128.977 194.526 128.808 194.949L129.736 195.325C129.931 194.84 130.045 194.384 130.04 193.974L129.04 193.978ZM128.797 194.979L123.558 211.041L124.508 211.356L129.748 195.294L128.797 194.979ZM124.038 211.699L135.678 211.65L135.668 210.65L124.028 210.699L124.038 211.699ZM136.144 210.985L130.463 194.969L129.521 195.299L135.202 211.315L136.144 210.985ZM130.452 194.942C130.275 194.521 130.203 194.202 130.2 193.973L129.2 193.977C129.205 194.388 129.327 194.842 129.532 195.326L130.452 194.942ZM179.002 219.368L178.517 219.488L178.614 219.87L179.007 219.868L179.002 219.368ZM172.92 195.314L172.431 195.414L172.433 195.424L172.436 195.434L172.92 195.314ZM172.71 194.315L173.2 194.215L173.115 193.813L172.705 193.815L172.71 194.315ZM172.55 194.315L172.545 193.815L172.135 193.817L172.059 194.219L172.55 194.315ZM172.36 195.316L172.848 195.43L172.85 195.421L172.852 195.412L172.36 195.316ZM166.882 219.419L166.887 219.919L167.282 219.917L167.37 219.532L166.882 219.419ZM162.162 219.439L161.68 219.57L161.784 219.94L162.167 219.939L162.162 219.439ZM154.361 191.472L154.356 190.972L153.704 190.974L153.88 191.603L154.361 191.472ZM157.921 191.457L158.406 191.336L158.309 190.955L157.916 190.957L157.921 191.457ZM164.168 216.07L164.658 215.97L164.655 215.96L164.653 215.95L164.168 216.07ZM164.378 217.069L163.889 217.17L163.973 217.571L164.383 217.569L164.378 217.069ZM164.578 217.069L164.583 217.569L165.01 217.567L165.073 217.146L164.578 217.069ZM164.728 216.068L164.241 215.953L164.237 215.972L164.234 215.991L164.728 216.068ZM170.401 191.404L170.396 190.904L170.002 190.906L169.914 191.29L170.401 191.404ZM174.841 191.386L175.325 191.264L175.228 190.884L174.836 190.886L174.841 191.386ZM181.168 215.999L181.653 215.88L181.652 215.877L181.168 215.999ZM181.418 216.998L180.933 217.117L181.029 217.5L181.423 217.498L181.418 216.998ZM181.578 216.997L181.583 217.497L182.009 217.495L182.073 217.074L181.578 216.997ZM181.728 215.997L181.24 215.884L181.236 215.902L181.234 215.92L181.728 215.997ZM187.281 191.334L187.276 190.834L186.88 190.835L186.793 191.221L187.281 191.334ZM190.841 191.319L191.325 191.446L191.488 190.816L190.836 190.819L190.841 191.319ZM183.602 219.349L183.607 219.849L183.99 219.847L184.086 219.476L183.602 219.349ZM179.487 219.248L173.405 195.194L172.436 195.434L178.517 219.488L179.487 219.248ZM173.41 195.214L173.2 194.215L172.221 194.415L172.431 195.414L173.41 195.214ZM172.705 193.815L172.545 193.815L172.555 194.815L172.715 194.815L172.705 193.815ZM172.059 194.219L171.869 195.22L172.852 195.412L173.042 194.411L172.059 194.219ZM171.873 195.203L166.394 219.305L167.37 219.532L172.848 195.43L171.873 195.203ZM166.877 218.919L162.157 218.939L162.167 219.939L166.887 219.919L166.877 218.919ZM162.644 219.307L154.843 191.34L153.88 191.603L161.68 219.57L162.644 219.307ZM154.366 191.972L157.926 191.957L157.916 190.957L154.356 190.972L154.366 191.972ZM157.436 191.577L163.684 216.191L164.653 215.95L158.406 191.336L157.436 191.577ZM163.679 216.17L163.889 217.17L164.868 216.969L164.658 215.97L163.679 216.17ZM164.383 217.569L164.583 217.569L164.573 216.569L164.373 216.569L164.383 217.569ZM165.073 217.146L165.223 216.145L164.234 215.991L164.084 216.992L165.073 217.146ZM165.216 216.183L170.888 191.519L169.914 191.29L164.241 215.953L165.216 216.183ZM170.406 191.904L174.846 191.886L174.836 190.886L170.396 190.904L170.406 191.904ZM174.357 191.508L180.684 216.121L181.652 215.877L175.325 191.264L174.357 191.508ZM180.683 216.118L180.933 217.117L181.903 216.879L181.653 215.88L180.683 216.118ZM181.423 217.498L181.583 217.497L181.573 216.497L181.413 216.498L181.423 217.498ZM182.073 217.074L182.223 216.074L181.234 215.92L181.084 216.92L182.073 217.074ZM182.216 216.109L187.769 191.446L186.793 191.221L181.24 215.884L182.216 216.109ZM187.286 191.833L190.846 191.819L190.836 190.819L187.276 190.834L187.286 191.833ZM190.357 191.191L183.118 219.221L184.086 219.476L191.325 191.446L190.357 191.191ZM183.597 218.849L178.997 218.868L179.007 219.868L183.607 219.849L183.597 218.849ZM208.711 215.643L209.027 215.258L208.705 214.993L208.387 215.261L208.711 215.643ZM211.131 217.633L211.455 218.016L211.912 217.63L211.447 217.248L211.131 217.633ZM210.179 218.437L210.503 218.82L210.179 218.437ZM209.186 219.161L209.349 219.635L209.369 219.628L209.388 219.62L209.186 219.161ZM194.651 217.702L194.967 217.317L194.651 217.702ZM194.483 200.903L194.807 201.286L194.483 200.903ZM195.435 200.099L195.111 199.716L195.435 200.099ZM208.595 200.044L208.903 199.652L208.892 199.644L208.881 199.636L208.595 200.044ZM209.603 200.84L209.294 201.231L209.3 201.236L209.307 201.241L209.603 200.84ZM210.665 211.035L210.67 211.535L211.17 211.533L211.165 211.033L210.665 211.035ZM196.985 211.093L196.98 210.593L196.48 210.595L196.485 211.095L196.985 211.093ZM197.071 215.652L196.581 215.752L196.595 215.818L196.626 215.878L197.071 215.652ZM198.079 216.448L197.898 216.913L197.941 216.93L197.986 216.939L198.079 216.448ZM207.718 216.368L207.881 216.841L207.901 216.835L207.92 216.826L207.718 216.368ZM207.279 208.449L207.284 208.949L207.784 208.947L207.779 208.447L207.279 208.449ZM207.143 202.93L206.654 203.03L206.668 203.096L206.698 203.156L207.143 202.93ZM206.175 202.134L205.994 202.599L206.037 202.616L206.082 202.625L206.175 202.134ZM197.936 202.169L198.038 202.659L198.083 202.649L198.126 202.632L197.936 202.169ZM196.944 202.973L196.477 202.789L196.465 202.821L196.457 202.854L196.944 202.973ZM196.959 208.493L196.459 208.495L196.464 208.995L196.964 208.993L196.959 208.493ZM208.395 216.029L210.815 218.019L211.447 217.248L209.027 215.258L208.395 216.029ZM210.807 217.25L209.855 218.054L210.503 218.82L211.455 218.016L210.807 217.25ZM209.855 218.054C209.622 218.251 209.43 218.404 209.278 218.515C209.118 218.632 209.025 218.685 208.985 218.703L209.388 219.62C209.533 219.557 209.699 219.449 209.87 219.324C210.049 219.194 210.26 219.025 210.503 218.82L209.855 218.054ZM209.023 218.688C208.953 218.712 208.713 218.743 208.222 218.745L208.232 219.745C208.701 219.743 209.101 219.719 209.349 219.635L209.023 218.688ZM208.222 218.745L197.542 218.79L197.552 219.79L208.232 219.745L208.222 218.745ZM197.542 218.79C197.051 218.792 196.518 218.592 195.935 218.113L195.303 218.884C196.011 219.466 196.764 219.793 197.552 219.79L197.542 218.79ZM195.935 218.113L194.967 217.317L194.335 218.088L195.303 218.884L195.935 218.113ZM194.967 217.317C194.432 216.876 194.178 216.349 194.171 215.704L193.171 215.709C193.181 216.664 193.58 217.467 194.335 218.088L194.967 217.317ZM194.171 215.704L194.043 202.905L193.043 202.909L193.171 215.709L194.171 215.704ZM194.043 202.905C194.036 202.26 194.28 201.731 194.807 201.286L194.159 200.52C193.416 201.147 193.033 201.954 193.043 202.909L194.043 202.905ZM194.807 201.286L195.759 200.482L195.111 199.716L194.159 200.52L194.807 201.286ZM195.759 200.482C196.331 199.998 196.86 199.793 197.352 199.791L197.342 198.791C196.553 198.795 195.807 199.128 195.111 199.716L195.759 200.482ZM197.352 199.791L206.672 199.752L206.662 198.752L197.342 198.791L197.352 199.791ZM206.672 199.752C207.049 199.75 207.586 199.943 208.308 200.452L208.881 199.636C208.099 199.084 207.35 198.749 206.662 198.752L206.672 199.752ZM208.286 200.436L209.294 201.231L209.911 200.448L208.903 199.652L208.286 200.436ZM209.307 201.241C209.815 201.617 210.076 202.13 210.083 202.838L211.083 202.834C211.073 201.835 210.68 201.017 209.899 200.439L209.307 201.241ZM210.083 202.838L210.165 211.037L211.165 211.033L211.083 202.834L210.083 202.838ZM210.66 210.535L196.98 210.593L196.99 211.593L210.67 211.535L210.66 210.535ZM196.485 211.095L196.523 214.855L197.523 214.85L197.485 211.091L196.485 211.095ZM196.523 214.855C196.527 215.247 196.542 215.563 196.581 215.752L197.56 215.552C197.544 215.475 197.527 215.258 197.523 214.85L196.523 214.855ZM196.626 215.878C196.689 216.002 196.784 216.109 196.873 216.197C196.967 216.289 197.082 216.386 197.212 216.486L197.818 215.694C197.707 215.609 197.627 215.54 197.573 215.487C197.513 215.428 197.507 215.409 197.516 215.427L196.626 215.878ZM197.212 216.486C197.459 216.676 197.694 216.833 197.898 216.913L198.26 215.983C198.196 215.958 198.055 215.876 197.818 215.694L197.212 216.486ZM197.986 216.939C198.178 216.976 198.539 216.986 199.004 216.984L198.994 215.984C198.5 215.986 198.247 215.972 198.172 215.957L197.986 216.939ZM199.004 216.984L206.764 216.952L206.754 215.952L198.994 215.984L199.004 216.984ZM206.764 216.952C207.233 216.95 207.633 216.925 207.881 216.841L207.555 215.894C207.484 215.918 207.245 215.95 206.754 215.952L206.764 216.952ZM207.92 216.826C208.065 216.763 208.231 216.655 208.402 216.53C208.581 216.4 208.792 216.231 209.035 216.026L208.387 215.261C208.154 215.457 207.962 215.61 207.81 215.721C207.65 215.838 207.557 215.891 207.517 215.909L207.92 216.826ZM207.779 208.447L207.731 203.688L206.731 203.692L206.779 208.452L207.779 208.447ZM207.731 203.688C207.729 203.479 207.72 203.296 207.703 203.145C207.687 203.011 207.66 202.844 207.588 202.705L206.698 203.156C206.686 203.132 206.687 203.124 206.693 203.148C206.697 203.169 206.704 203.203 206.709 203.254C206.721 203.357 206.729 203.501 206.731 203.692L207.731 203.688ZM207.633 202.83C207.595 202.65 207.497 202.501 207.402 202.389C207.303 202.272 207.179 202.161 207.042 202.056L206.436 202.848C206.54 202.928 206.604 202.989 206.64 203.032C206.68 203.079 206.664 203.077 206.654 203.03L207.633 202.83ZM207.042 202.056C206.796 201.867 206.527 201.694 206.269 201.643L206.082 202.625C206.075 202.623 206.102 202.628 206.173 202.668C206.239 202.706 206.326 202.764 206.436 202.848L207.042 202.056ZM206.356 201.669C206.216 201.614 206.043 201.59 205.883 201.577C205.71 201.563 205.497 201.557 205.25 201.558L205.26 202.558C205.492 202.557 205.673 202.563 205.807 202.574C205.954 202.586 206.001 202.602 205.994 202.599L206.356 201.669ZM205.25 201.558L198.85 201.585L198.86 202.585L205.26 202.558L205.25 201.558ZM198.85 201.585C198.602 201.586 198.39 201.594 198.217 201.609C198.057 201.624 197.884 201.649 197.745 201.705L198.126 202.632C198.119 202.635 198.166 202.619 198.313 202.605C198.446 202.593 198.627 202.586 198.86 202.585L198.85 201.585ZM197.833 201.679C197.575 201.732 197.309 201.907 197.068 202.098L197.69 202.884C197.797 202.8 197.883 202.741 197.949 202.703C198.019 202.662 198.046 202.657 198.038 202.659L197.833 201.679ZM197.068 202.098C196.822 202.292 196.581 202.522 196.477 202.789L197.41 203.157C197.406 203.167 197.413 203.145 197.463 203.089C197.511 203.035 197.585 202.967 197.69 202.884L197.068 202.098ZM196.457 202.854C196.432 202.958 196.422 203.091 196.417 203.219C196.411 203.358 196.409 203.531 196.411 203.735L197.411 203.731C197.409 203.535 197.411 203.382 197.416 203.267C197.418 203.21 197.421 203.166 197.425 203.134C197.428 203.099 197.431 203.088 197.43 203.092L196.457 202.854ZM196.411 203.735L196.459 208.495L197.459 208.491L197.411 203.731L196.411 203.735ZM196.964 208.993L207.284 208.949L207.274 207.949L196.954 207.993L196.964 208.993ZM229.219 202.837L228.73 202.937L228.744 203.003L228.774 203.063L229.219 202.837ZM228.251 202.041L228.07 202.506L228.113 202.523L228.158 202.532L228.251 202.041ZM220.651 202.073L220.509 201.593L220.499 201.596L220.488 201.6L220.651 202.073ZM219.696 202.597L219.961 203.023L219.696 202.597ZM218.863 203.241L218.432 202.985L218.432 202.985L218.863 203.241ZM218.982 215.16L218.556 215.419L218.982 215.16ZM219.829 215.797L220.085 215.369L219.829 215.797ZM220.794 216.313L220.641 216.788L220.651 216.791L220.662 216.794L220.794 216.313ZM228.394 216.321L228.497 216.811L228.542 216.801L228.585 216.784L228.394 216.321ZM229.346 215.517L228.88 215.333L228.868 215.365L228.86 215.398L229.346 215.517ZM218.606 189.602L219.106 189.6L219.101 189.1L218.601 189.102L218.606 189.602ZM218.721 201.081L218.221 201.084L218.226 201.584L218.726 201.581L218.721 201.081ZM218.881 201.081L218.886 201.581L219.386 201.579L219.381 201.079L218.881 201.081ZM219.75 199.957L219.419 199.58L219.75 199.957ZM230.71 199.951L231.027 199.566L230.71 199.951ZM231.678 200.747L231.362 201.133L231.678 200.747ZM231.847 217.546L231.523 217.163L231.847 217.546ZM230.895 218.35L231.219 218.733L230.895 218.35ZM220.502 219.114L220.349 219.589L220.359 219.592L220.37 219.595L220.502 219.114ZM219.537 218.598L219.793 218.17L219.771 218.157L219.748 218.146L219.537 218.598ZM218.568 217.722L219.066 217.675L219.02 217.22L218.563 217.222L218.568 217.722ZM218.408 217.723L218.403 217.223L217.903 217.225L217.908 217.725L218.408 217.723ZM218.423 219.203L218.428 219.703L218.928 219.7L218.923 219.2L218.423 219.203ZM215.543 219.215L215.043 219.217L215.048 219.717L215.548 219.715L215.543 219.215ZM215.246 189.616L215.241 189.116L214.741 189.118L214.746 189.618L215.246 189.616ZM229.918 214.714L229.807 203.595L228.807 203.599L228.918 214.719L229.918 214.714ZM229.807 203.595C229.805 203.386 229.796 203.204 229.779 203.053C229.763 202.919 229.735 202.751 229.664 202.612L228.774 203.063C228.762 203.039 228.763 203.031 228.768 203.055C228.773 203.076 228.779 203.111 228.785 203.162C228.797 203.264 228.805 203.408 228.807 203.599L229.807 203.595ZM229.708 202.737C229.671 202.557 229.573 202.409 229.478 202.296C229.379 202.18 229.255 202.069 229.117 201.963L228.511 202.755C228.616 202.835 228.68 202.897 228.716 202.94C228.756 202.987 228.74 202.985 228.73 202.937L229.708 202.737ZM229.117 201.963C228.872 201.775 228.603 201.601 228.344 201.551L228.158 202.532C228.151 202.531 228.178 202.536 228.248 202.576C228.315 202.613 228.402 202.671 228.511 202.755L229.117 201.963ZM228.432 201.576C228.292 201.521 228.119 201.498 227.959 201.485C227.785 201.47 227.573 201.464 227.325 201.465L227.335 202.465C227.568 202.464 227.749 202.47 227.882 202.481C228.029 202.493 228.077 202.509 228.07 202.506L228.432 201.576ZM227.325 201.465L221.685 201.489L221.695 202.489L227.335 202.465L227.325 201.465ZM221.685 201.489C221.184 201.491 220.771 201.517 220.509 201.593L220.793 202.554C220.904 202.521 221.184 202.491 221.695 202.489L221.685 201.489ZM220.488 201.6C220.265 201.675 219.896 201.884 219.431 202.172L219.961 203.023C220.451 202.72 220.719 202.579 220.814 202.547L220.488 201.6ZM219.431 202.172C219.186 202.324 218.981 202.461 218.823 202.583C218.682 202.693 218.524 202.829 218.432 202.985L219.294 203.496C219.281 203.519 219.301 203.481 219.437 203.376C219.557 203.284 219.73 203.166 219.961 203.023L219.431 202.172ZM218.432 202.985C218.343 203.135 218.303 203.311 218.281 203.469C218.257 203.636 218.249 203.829 218.251 204.043L219.251 204.039C219.249 203.853 219.257 203.713 219.271 203.613C219.286 203.504 219.304 203.48 219.294 203.496L218.432 202.985ZM218.251 204.043L218.354 214.363L219.354 214.359L219.251 204.039L218.251 204.043ZM218.354 214.363C218.357 214.577 218.369 214.77 218.396 214.937C218.421 215.094 218.465 215.27 218.556 215.419L219.409 214.901C219.419 214.917 219.401 214.893 219.383 214.784C219.367 214.684 219.356 214.545 219.354 214.359L218.354 214.363ZM218.556 215.419C218.651 215.575 218.812 215.71 218.956 215.818C219.116 215.939 219.324 216.074 219.572 216.224L220.085 215.369C219.851 215.228 219.676 215.112 219.554 215.02C219.416 214.916 219.395 214.879 219.409 214.901L218.556 215.419ZM219.572 216.224C220.043 216.508 220.416 216.714 220.641 216.788L220.947 215.838C220.852 215.806 220.581 215.668 220.085 215.369L219.572 216.224ZM220.662 216.794C220.924 216.868 221.322 216.89 221.8 216.888L221.79 215.888C221.308 215.89 221.039 215.863 220.927 215.831L220.662 216.794ZM221.8 216.888L227.48 216.865L227.47 215.865L221.79 215.888L221.8 216.888ZM227.48 216.865C227.945 216.863 228.306 216.85 228.497 216.811L228.291 215.831C228.217 215.846 227.964 215.863 227.47 215.865L227.48 216.865ZM228.585 216.784C228.787 216.702 229.018 216.544 229.262 216.352L228.64 215.565C228.407 215.749 228.268 215.831 228.204 215.857L228.585 216.784ZM229.262 216.352C229.393 216.249 229.509 216.145 229.602 216.042C229.685 215.949 229.791 215.811 229.833 215.636L228.86 215.398C228.865 215.377 228.871 215.362 228.875 215.353C228.879 215.344 228.882 215.339 228.882 215.339C228.882 215.339 228.88 215.342 228.876 215.348C228.871 215.354 228.864 215.362 228.855 215.372C228.815 215.417 228.747 215.481 228.64 215.565L229.262 216.352ZM229.812 215.7C229.864 215.567 229.888 215.411 229.901 215.264C229.915 215.108 229.92 214.924 229.918 214.714L228.918 214.719C228.92 214.909 228.915 215.058 228.905 215.169C228.9 215.224 228.895 215.266 228.889 215.296C228.883 215.327 228.879 215.337 228.88 215.333L229.812 215.7ZM218.106 189.604L218.221 201.084L219.221 201.079L219.106 189.6L218.106 189.604ZM218.726 201.581L218.886 201.581L218.876 200.581L218.716 200.581L218.726 201.581ZM219.381 201.079C219.382 201.137 219.36 201.099 219.493 200.927C219.61 200.776 219.801 200.579 220.081 200.334L219.419 199.58C219.118 199.844 218.873 200.089 218.7 200.313C218.544 200.515 218.378 200.784 218.381 201.083L219.381 201.079ZM220.081 200.334C220.638 199.847 221.026 199.692 221.267 199.691L221.257 198.691C220.645 198.693 220.025 199.05 219.419 199.58L220.081 200.334ZM221.267 199.691L228.787 199.659L228.777 198.659L221.257 198.691L221.267 199.691ZM228.787 199.659C229.279 199.657 229.812 199.858 230.394 200.337L231.027 199.566C230.318 198.983 229.566 198.656 228.777 198.659L228.787 199.659ZM230.394 200.337L231.362 201.133L231.995 200.362L231.027 199.566L230.394 200.337ZM231.362 201.133C231.898 201.573 232.152 202.1 232.158 202.745L233.158 202.741C233.149 201.786 232.749 200.982 231.995 200.362L231.362 201.133ZM232.158 202.745L232.287 215.544L233.287 215.54L233.158 202.741L232.158 202.745ZM232.287 215.544C232.293 216.189 232.05 216.718 231.523 217.163L232.171 217.929C232.913 217.302 233.296 216.495 233.287 215.54L232.287 215.544ZM231.523 217.163L230.571 217.967L231.219 218.733L232.171 217.929L231.523 217.163ZM230.571 217.967C229.998 218.451 229.47 218.656 228.978 218.658L228.988 219.658C229.776 219.655 230.522 219.321 231.219 218.733L230.571 217.967ZM228.978 218.658L221.498 218.69L221.508 219.69L228.988 219.658L228.978 218.658ZM221.498 218.69C221.016 218.692 220.747 218.664 220.635 218.633L220.37 219.595C220.632 219.669 221.03 219.692 221.508 219.69L221.498 218.69ZM220.656 218.639C220.56 218.607 220.289 218.469 219.793 218.17L219.281 219.026C219.751 219.31 220.124 219.515 220.349 219.589L220.656 218.639ZM219.748 218.146C219.463 218.011 219.277 217.89 219.167 217.791C219.055 217.69 219.063 217.65 219.066 217.675L218.071 217.769C218.103 218.087 218.287 218.34 218.498 218.531C218.711 218.723 218.995 218.894 219.326 219.05L219.748 218.146ZM218.563 217.222L218.403 217.223L218.413 218.223L218.573 218.222L218.563 217.222ZM217.908 217.725L217.923 219.205L218.923 219.2L218.908 217.721L217.908 217.725ZM218.418 218.703L215.538 218.715L215.548 219.715L218.428 219.703L218.418 218.703ZM216.043 219.213L215.746 189.614L214.746 189.618L215.043 219.217L216.043 219.213ZM215.251 190.116L218.611 190.102L218.601 189.102L215.241 189.116L215.251 190.116ZM85.9964 234.158L86.4692 233.998L86.3063 233.525L85.8336 233.685L85.9964 234.158ZM85.8768 234.199L85.714 233.725L85.2588 233.879L85.3983 234.341L85.8768 234.199ZM86.4133 259.756L86.4183 260.256L86.9183 260.254L86.9132 259.754L86.4133 259.756ZM83.0533 259.77L82.5533 259.773L82.5583 260.272L83.0583 260.27L83.0533 259.77ZM82.7724 231.772L82.7674 231.272L82.2674 231.274L82.2724 231.774L82.7724 231.772ZM88.2123 231.749L88.6775 231.568L88.5513 231.248L88.2073 231.249L88.2123 231.749ZM96.9966 254.072L97.4666 253.904L97.4617 253.891L96.9966 254.072ZM97.2478 255.191L96.7478 255.193L96.7528 255.693L97.2528 255.691L97.2478 255.191ZM97.4078 255.19L97.4128 255.69L97.9128 255.688L97.9078 255.188L97.4078 255.19ZM97.6366 254.069L97.1679 253.892L97.1634 253.905L97.6366 254.069ZM106.012 231.674L106.007 231.174L105.664 231.176L105.544 231.497L106.012 231.674ZM111.412 231.652L111.912 231.65L111.907 231.15L111.407 231.152L111.412 231.652ZM111.693 259.65L111.698 260.15L112.198 260.148L112.193 259.648L111.693 259.65ZM108.333 259.664L107.833 259.666L107.838 260.166L108.338 260.164L108.333 259.664ZM108.357 234.104L108.838 234.242L108.968 233.78L108.51 233.629L108.357 234.104ZM108.236 234.065L108.39 233.59L107.935 233.441L107.768 233.887L108.236 234.065ZM98.6531 259.705L98.6582 260.205L99.0016 260.203L99.1216 259.882L98.6531 259.705ZM96.0932 259.716L95.632 259.906L95.7619 260.217L96.0982 260.216L96.0932 259.716ZM92.4853 250.971L92.0208 251.153L92.0223 251.157L92.4853 250.971ZM89.6943 243.903L89.2279 244.08L89.2288 244.082L89.6943 243.903ZM87.7638 238.871L87.2956 239.044L87.2966 239.046L87.7638 238.871ZM86.4897 235.476L86.9574 235.302L86.4897 235.476ZM85.8336 233.685L85.714 233.725L86.0397 234.672L86.1593 234.632L85.8336 233.685ZM85.3983 234.341C85.5782 234.936 85.6702 235.529 85.6761 236.12L86.6761 236.115C86.6692 235.426 86.5617 234.739 86.3554 234.057L85.3983 234.341ZM85.6761 236.12L85.9133 259.758L86.9132 259.754L86.6761 236.115L85.6761 236.12ZM86.4082 259.256L83.0483 259.27L83.0583 260.27L86.4183 260.256L86.4082 259.256ZM83.5533 259.768L83.2724 231.77L82.2724 231.774L82.5533 259.773L83.5533 259.768ZM82.7774 232.272L88.2174 232.249L88.2073 231.249L82.7674 231.272L82.7774 232.272ZM87.7472 231.93L96.5314 254.253L97.4617 253.891L88.6775 231.568L87.7472 231.93ZM96.5268 254.24C96.6827 254.669 96.7457 254.981 96.7478 255.193L97.7478 255.189C97.7441 254.814 97.6396 254.38 97.4664 253.904L96.5268 254.24ZM97.2528 255.691L97.4128 255.69L97.4028 254.69L97.2428 254.691L97.2528 255.691ZM97.9078 255.188C97.9057 254.976 97.9625 254.664 98.1097 254.234L97.1634 253.905C96.9998 254.383 96.9041 254.818 96.9078 255.192L97.9078 255.188ZM98.105 254.247L106.481 231.852L105.544 231.497L97.1681 253.892L98.105 254.247ZM106.017 232.174L111.417 232.152L111.407 231.152L106.007 231.174L106.017 232.174ZM110.912 231.654L111.193 259.652L112.193 259.648L111.912 231.65L110.912 231.654ZM111.688 259.15L108.328 259.164L108.338 260.164L111.698 260.15L111.688 259.15ZM108.833 259.662L108.596 236.023L107.596 236.028L107.833 259.666L108.833 259.662ZM108.596 236.023C108.59 235.433 108.67 234.84 108.838 234.242L107.875 233.966C107.683 234.651 107.589 235.338 107.596 236.028L108.596 236.023ZM108.51 233.629L108.39 233.59L108.083 234.54L108.203 234.579L108.51 233.629ZM107.768 233.887L98.1846 259.528L99.1216 259.882L108.705 234.242L107.768 233.887ZM98.6481 259.205L96.0881 259.216L96.0982 260.216L98.6582 260.205L98.6481 259.205ZM96.5544 259.525C95.298 256.519 94.096 253.605 92.9483 250.785L92.0223 251.157C93.1713 253.98 94.3745 256.897 95.632 259.906L96.5544 259.525ZM92.9498 250.789C91.8284 247.967 90.8984 245.612 90.1599 243.723L89.2288 244.082C89.9682 245.974 90.8989 248.331 92.0208 251.153L92.9498 250.789ZM90.1607 243.725C89.4216 241.809 88.7784 240.132 88.2309 238.695L87.2966 239.046C87.8447 240.485 88.4885 242.163 89.2279 244.08L90.1607 243.725ZM88.232 238.698C87.6839 237.233 87.259 236.101 86.9574 235.302L86.022 235.65C86.3231 236.448 86.7476 237.579 87.2956 239.044L88.232 238.698ZM86.9574 235.302C86.6537 234.497 86.4935 234.069 86.4692 233.998L85.5237 234.318C85.5543 234.407 85.7229 234.858 86.022 235.65L86.9574 235.302ZM132.157 257.964L132.657 257.962L132.652 257.462L132.152 257.464L132.157 257.964ZM131.997 257.965L131.992 257.465L131.492 257.467L131.497 257.967L131.997 257.965ZM131.127 258.969L130.869 258.539L130.862 258.543L131.127 258.969ZM130.133 259.493L129.991 259.013L129.98 259.016L129.97 259.019L130.133 259.493ZM120.406 258.814L120.722 258.428L120.406 258.814ZM119.438 258.018L119.754 257.632L119.438 258.018ZM119.349 249.218L119.025 248.835L119.349 249.218ZM120.301 248.414L120.625 248.797L120.301 248.414ZM130.334 247.652L130.153 248.117L130.196 248.134L130.241 248.143L130.334 247.652ZM130.857 247.97L130.532 248.348L130.541 248.355L130.857 247.97ZM131.345 248.768L130.845 248.77L130.85 249.27L131.35 249.268L131.345 248.768ZM131.505 248.767L131.51 249.267L132.01 249.265L132.005 248.765L131.505 248.767ZM131.37 243.248L130.88 243.348L130.894 243.413L130.925 243.473L131.37 243.248ZM130.402 242.452L130.221 242.917L130.263 242.934L130.309 242.942L130.402 242.452ZM122.002 242.527L122.165 243.001L122.185 242.994L122.204 242.986L122.002 242.527ZM121.049 243.211L120.733 243.597L121.056 243.862L121.373 243.594L121.049 243.211ZM118.629 241.221L118.305 240.838L117.848 241.225L118.313 241.607L118.629 241.221ZM119.581 240.417L119.905 240.8L119.581 240.417ZM120.534 239.733L120.697 240.207L120.717 240.2L120.736 240.192L120.534 239.733ZM132.861 240.362L133.177 239.976L132.861 240.362ZM133.829 241.157L133.513 241.543L133.829 241.157ZM134.977 255.913L134.488 256.013L134.501 256.078L134.532 256.138L134.977 255.913ZM135.421 256.351L135.118 256.747L135.421 256.351ZM135.826 256.829L135.337 256.929L135.351 256.995L135.381 257.054L135.826 256.829ZM135.933 259.548L135.938 260.048L136.438 260.046L136.433 259.546L135.933 259.548ZM133.533 259.479L133.314 259.927L133.355 259.947L133.4 259.96L133.533 259.479ZM132.807 258.962L133.124 258.576L133.119 258.572L132.807 258.962ZM121.857 255.968L121.368 256.068L121.382 256.133L121.412 256.193L121.857 255.968ZM122.865 256.763L122.684 257.228L122.727 257.245L122.772 257.254L122.865 256.763ZM129.625 256.695L129.482 256.215L129.472 256.218L129.462 256.221L129.625 256.695ZM131.453 255.527L131.022 255.272L131.453 255.527ZM131.45 251.247L130.961 251.347L130.975 251.413L131.005 251.473L131.45 251.247ZM130.482 250.451L130.301 250.916L130.344 250.933L130.389 250.942L130.482 250.451ZM122.802 250.484L122.905 250.974L122.95 250.964L122.992 250.947L122.802 250.484ZM121.81 251.288L121.344 251.104L121.332 251.136L121.324 251.169L121.81 251.288ZM132.152 257.464L131.992 257.465L132.002 258.465L132.162 258.464L132.152 257.464ZM131.497 257.967C131.497 257.969 131.498 257.98 131.487 258.005C131.475 258.032 131.451 258.073 131.404 258.127C131.306 258.24 131.137 258.379 130.869 258.539L131.386 259.398C131.701 259.209 131.968 259.007 132.161 258.785C132.355 258.561 132.501 258.285 132.497 257.963L131.497 257.967ZM130.862 258.543C130.377 258.844 130.101 258.98 129.991 259.013L130.275 259.973C130.536 259.897 130.924 259.684 131.392 259.394L130.862 258.543ZM129.97 259.019C129.899 259.043 129.66 259.075 129.168 259.077L129.179 260.077C129.647 260.075 130.048 260.05 130.296 259.966L129.97 259.019ZM129.168 259.077L122.329 259.106L122.339 260.106L129.179 260.077L129.168 259.077ZM122.329 259.106C121.837 259.108 121.304 258.907 120.722 258.428L120.089 259.199C120.798 259.781 121.55 260.109 122.339 260.106L122.329 259.106ZM120.722 258.428L119.754 257.632L119.121 258.403L120.089 259.199L120.722 258.428ZM119.754 257.632C119.218 257.192 118.964 256.664 118.957 256.02L117.957 256.024C117.967 256.979 118.366 257.783 119.121 258.403L119.754 257.632ZM118.957 256.02L118.909 251.22L117.909 251.224L117.957 256.024L118.957 256.02ZM118.909 251.22C118.903 250.575 119.146 250.046 119.673 249.601L119.025 248.835C118.283 249.462 117.9 250.269 117.909 251.224L118.909 251.22ZM119.673 249.601L120.625 248.797L119.977 248.031L119.025 248.835L119.673 249.601ZM120.625 248.797C121.198 248.313 121.727 248.108 122.218 248.106L122.208 247.106C121.42 247.109 120.674 247.443 119.977 248.031L120.625 248.797ZM122.218 248.106L129.378 248.076L129.368 247.076L122.208 247.106L122.218 248.106ZM129.378 248.076C129.625 248.075 129.816 248.081 129.957 248.092C130.113 248.104 130.161 248.12 130.153 248.117L130.515 247.187C130.373 247.131 130.194 247.108 130.03 247.095C129.85 247.081 129.628 247.075 129.368 247.076L129.378 248.076ZM130.241 248.143C130.228 248.14 130.248 248.142 130.307 248.178C130.363 248.212 130.438 248.266 130.532 248.348L131.183 247.592C130.959 247.399 130.699 247.214 130.427 247.161L130.241 248.143ZM130.541 248.355C130.813 248.579 130.845 248.719 130.845 248.77L131.845 248.766C131.84 248.284 131.546 247.891 131.173 247.584L130.541 248.355ZM131.35 249.268L131.51 249.267L131.5 248.267L131.34 248.268L131.35 249.268ZM132.005 248.765L131.957 244.005L130.957 244.009L131.005 248.769L132.005 248.765ZM131.957 244.005C131.955 243.796 131.947 243.614 131.929 243.463C131.914 243.329 131.886 243.161 131.815 243.022L130.925 243.473C130.913 243.449 130.913 243.441 130.919 243.466C130.924 243.487 130.93 243.521 130.936 243.572C130.948 243.674 130.955 243.818 130.957 244.009L131.957 244.005ZM131.859 243.148C131.821 242.967 131.724 242.819 131.628 242.707C131.53 242.59 131.406 242.479 131.268 242.374L130.662 243.165C130.766 243.245 130.83 243.307 130.867 243.35C130.906 243.397 130.89 243.395 130.88 243.348L131.859 243.148ZM131.268 242.374C131.023 242.185 130.754 242.012 130.495 241.961L130.309 242.942C130.301 242.941 130.328 242.946 130.399 242.986C130.466 243.024 130.553 243.082 130.662 243.165L131.268 242.374ZM130.583 241.987C130.442 241.932 130.269 241.908 130.109 241.895C129.936 241.881 129.723 241.875 129.476 241.876L129.486 242.876C129.719 242.875 129.899 242.88 130.033 242.891C130.18 242.904 130.227 242.919 130.221 242.917L130.583 241.987ZM129.476 241.876L122.996 241.903L123.006 242.903L129.486 242.876L129.476 241.876ZM122.996 241.903C122.516 241.905 122.09 241.943 121.801 242.068L122.204 242.986C122.286 242.95 122.526 242.905 123.006 242.903L122.996 241.903ZM121.839 242.053C121.683 242.106 121.511 242.217 121.351 242.332C121.177 242.456 120.968 242.623 120.725 242.828L121.373 243.594C121.606 243.397 121.793 243.249 121.937 243.145C122.009 243.094 122.066 243.056 122.109 243.031C122.156 243.004 122.172 242.998 122.165 243.001L121.839 242.053ZM121.365 242.826L118.945 240.836L118.313 241.607L120.733 243.597L121.365 242.826ZM118.953 241.604L119.905 240.8L119.257 240.035L118.305 240.838L118.953 241.604ZM119.905 240.8C120.138 240.603 120.325 240.455 120.469 240.352C120.541 240.3 120.598 240.263 120.641 240.237C120.688 240.21 120.704 240.205 120.697 240.207L120.371 239.26C120.215 239.313 120.043 239.423 119.883 239.538C119.709 239.663 119.5 239.829 119.257 240.035L119.905 240.8ZM120.736 240.192C120.818 240.156 121.058 240.111 121.538 240.109L121.528 239.109C121.048 239.111 120.622 239.149 120.333 239.275L120.736 240.192ZM121.538 240.109L130.938 240.07L130.928 239.07L121.528 239.109L121.538 240.109ZM130.938 240.07C131.429 240.068 131.962 240.268 132.545 240.747L133.177 239.976C132.469 239.394 131.716 239.066 130.928 239.07L130.938 240.07ZM132.545 240.747L133.513 241.543L134.145 240.772L133.177 239.976L132.545 240.747ZM133.513 241.543C134.048 241.983 134.302 242.511 134.309 243.155L135.309 243.151C135.299 242.196 134.9 241.393 134.145 240.772L133.513 241.543ZM134.309 243.155L134.429 255.115L135.429 255.111L135.309 243.151L134.309 243.155ZM134.429 255.115C134.433 255.507 134.448 255.823 134.488 256.013L135.466 255.812C135.45 255.736 135.433 255.518 135.429 255.111L134.429 255.115ZM134.532 256.138C134.595 256.262 134.69 256.37 134.779 256.457C134.873 256.55 134.988 256.646 135.118 256.747L135.724 255.955C135.613 255.869 135.533 255.8 135.479 255.747C135.419 255.688 135.413 255.669 135.422 255.687L134.532 256.138ZM135.118 256.747C135.222 256.827 135.287 256.888 135.323 256.931C135.363 256.978 135.347 256.976 135.337 256.929L136.315 256.729C136.278 256.548 136.18 256.4 136.085 256.288C135.986 256.171 135.862 256.06 135.724 255.955L135.118 256.747ZM135.381 257.054C135.369 257.03 135.37 257.023 135.375 257.047C135.38 257.068 135.386 257.102 135.392 257.153C135.404 257.255 135.412 257.4 135.414 257.591L136.414 257.586C136.412 257.378 136.403 257.195 136.386 257.044C136.37 256.91 136.342 256.743 136.271 256.603L135.381 257.054ZM135.414 257.591L135.433 259.551L136.433 259.546L136.414 257.586L135.414 257.591ZM135.928 259.048L134.528 259.054L134.538 260.054L135.938 260.048L135.928 259.048ZM134.528 259.054C134.047 259.056 133.777 259.029 133.665 258.997L133.4 259.96C133.662 260.033 134.06 260.056 134.538 260.054L134.528 259.054ZM133.752 259.03C133.648 258.979 133.445 258.841 133.124 258.576L132.491 259.347C132.815 259.613 133.096 259.819 133.314 259.927L133.752 259.03ZM133.119 258.572C132.725 258.256 132.658 258.052 132.657 257.962L131.657 257.966C131.663 258.517 132.03 258.977 132.496 259.351L133.119 258.572ZM121.278 252.05L121.309 255.17L122.309 255.166L122.278 252.046L121.278 252.05ZM121.309 255.17C121.313 255.562 121.328 255.878 121.368 256.068L122.346 255.867C122.33 255.791 122.313 255.573 122.309 255.166L121.309 255.17ZM121.412 256.193C121.475 256.317 121.57 256.425 121.659 256.512C121.753 256.605 121.868 256.701 121.998 256.802L122.604 256.01C122.493 255.924 122.413 255.855 122.359 255.802C122.299 255.743 122.293 255.725 122.302 255.742L121.412 256.193ZM121.998 256.802C122.246 256.991 122.48 257.148 122.684 257.228L123.046 256.298C122.982 256.273 122.841 256.191 122.604 256.01L121.998 256.802ZM122.772 257.254C122.964 257.292 123.325 257.301 123.79 257.299L123.78 256.3C123.286 256.302 123.033 256.287 122.958 256.273L122.772 257.254ZM123.79 257.299L128.67 257.279L128.66 256.279L123.78 256.3L123.79 257.299ZM128.67 257.279C129.139 257.277 129.539 257.253 129.787 257.169L129.462 256.221C129.391 256.245 129.152 256.277 128.66 256.279L128.67 257.279ZM129.767 257.175C130.028 257.099 130.416 256.886 130.884 256.596L130.354 255.745C129.869 256.046 129.593 256.183 129.482 256.215L129.767 257.175ZM130.884 256.596C131.13 256.444 131.335 256.307 131.493 256.185C131.634 256.076 131.792 255.939 131.884 255.783L131.022 255.272C131.035 255.249 131.015 255.287 130.879 255.392C130.759 255.485 130.586 255.602 130.354 255.745L130.884 256.596ZM131.884 255.783C131.973 255.633 132.013 255.457 132.035 255.299C132.058 255.132 132.067 254.939 132.065 254.725L131.065 254.729C131.067 254.915 131.059 255.055 131.045 255.155C131.029 255.264 131.012 255.288 131.022 255.272L131.884 255.783ZM132.065 254.725L132.038 252.005L131.038 252.009L131.065 254.729L132.065 254.725ZM132.038 252.005C132.036 251.796 132.027 251.614 132.009 251.463C131.994 251.329 131.966 251.161 131.895 251.022L131.005 251.473C130.993 251.449 130.993 251.441 130.999 251.465C131.004 251.486 131.01 251.521 131.016 251.572C131.028 251.674 131.036 251.818 131.038 252.009L132.038 252.005ZM131.939 251.147C131.901 250.967 131.804 250.819 131.709 250.706C131.61 250.59 131.486 250.479 131.348 250.373L130.742 251.165C130.846 251.245 130.911 251.307 130.947 251.35C130.987 251.396 130.971 251.395 130.961 251.347L131.939 251.147ZM131.348 250.373C131.103 250.185 130.834 250.011 130.575 249.961L130.389 250.942C130.381 250.941 130.408 250.946 130.479 250.986C130.546 251.023 130.633 251.081 130.742 251.165L131.348 250.373ZM130.663 249.986C130.523 249.931 130.349 249.908 130.19 249.895C130.016 249.88 129.804 249.874 129.556 249.875L129.566 250.875C129.799 250.874 129.98 250.88 130.113 250.891C130.26 250.903 130.307 250.919 130.301 250.916L130.663 249.986ZM129.556 249.875L123.716 249.9L123.726 250.9L129.566 250.875L129.556 249.875ZM123.716 249.9C123.469 249.901 123.256 249.909 123.083 249.924C122.924 249.939 122.751 249.964 122.612 250.02L122.992 250.947C122.986 250.95 123.033 250.934 123.18 250.92C123.313 250.908 123.494 250.901 123.726 250.9L123.716 249.9ZM122.699 249.994C122.441 250.047 122.176 250.222 121.934 250.413L122.556 251.199C122.664 251.115 122.75 251.056 122.815 251.018C122.886 250.977 122.913 250.972 122.905 250.974L122.699 249.994ZM121.934 250.413C121.688 250.606 121.448 250.837 121.344 251.104L122.276 251.472C122.272 251.482 122.279 251.46 122.33 251.403C122.378 251.35 122.451 251.282 122.556 251.199L121.934 250.413ZM121.324 251.169C121.299 251.273 121.289 251.406 121.283 251.534C121.277 251.673 121.276 251.846 121.278 252.05L122.278 252.046C122.276 251.85 122.278 251.697 122.282 251.582C122.285 251.525 122.288 251.481 122.291 251.449C122.295 251.413 122.297 251.403 122.296 251.407L121.324 251.169ZM155.281 248.667L155.597 248.282L155.281 248.667ZM156.249 249.463L155.933 249.849L156.249 249.463ZM156.333 257.863L156.01 257.48L156.333 257.863ZM155.381 258.667L155.705 259.05L155.381 258.667ZM141.694 257.924L142.01 257.539L141.694 257.924ZM140.697 254.329L140.692 253.829L140.192 253.831L140.197 254.331L140.697 254.329ZM144.057 254.314L144.557 254.312L144.552 253.812L144.052 253.814L144.057 254.314ZM144.113 255.874L143.624 255.974L143.638 256.04L143.668 256.1L144.113 255.874ZM145.121 256.67L144.94 257.135L144.983 257.152L145.028 257.161L145.121 256.67ZM152.881 256.637L152.984 257.127L153.029 257.118L153.071 257.101L152.881 256.637ZM153.833 255.833L153.367 255.65L153.355 255.681L153.347 255.714L153.833 255.833ZM153.872 251.793L154.372 251.791L154.372 251.76L154.368 251.729L153.872 251.793ZM153.385 251.075L153.718 250.704L153.704 250.691L153.688 250.679L153.385 251.075ZM152.822 250.758L152.641 251.223L152.684 251.24L152.729 251.248L152.822 250.758ZM142.973 249.919L142.657 250.304L142.657 250.304L142.973 249.919ZM142.005 249.123L142.322 248.738L142.005 249.123ZM141.925 241.123L142.249 241.506L141.925 241.123ZM142.877 240.319L142.553 239.937L142.553 239.937L142.877 240.319ZM155.197 240.268L155.513 239.882L155.197 240.268ZM156.165 241.064L155.849 241.449L156.165 241.064ZM157.161 244.659L157.166 245.159L157.666 245.157L157.661 244.657L157.161 244.659ZM153.801 244.674L153.301 244.676L153.306 245.176L153.806 245.174L153.801 244.674ZM153.706 243.154L153.217 243.254L153.23 243.32L153.261 243.379L153.706 243.154ZM152.738 242.358L152.557 242.823L152.6 242.84L152.645 242.849L152.738 242.358ZM145.378 242.389L145.481 242.879L145.526 242.87L145.568 242.852L145.378 242.389ZM144.386 243.193L143.92 243.009L143.908 243.041L143.9 243.074L144.386 243.193ZM144.425 247.073L143.936 247.173L143.949 247.239L143.98 247.298L144.425 247.073ZM145.433 247.869L145.252 248.334L145.295 248.351L145.34 248.359L145.433 247.869ZM153.358 248.375C153.85 248.373 154.382 248.574 154.965 249.053L155.597 248.282C154.889 247.7 154.137 247.372 153.348 247.375L153.358 248.375ZM154.965 249.053L155.933 249.849L156.565 249.078L155.597 248.282L154.965 249.053ZM155.933 249.849C156.469 250.289 156.723 250.817 156.729 251.461L157.729 251.457C157.72 250.502 157.32 249.698 156.565 249.078L155.933 249.849ZM156.729 251.461L156.773 255.861L157.773 255.857L157.729 251.457L156.729 251.461ZM156.773 255.861C156.78 256.506 156.536 257.035 156.01 257.48L156.657 258.246C157.4 257.619 157.783 256.812 157.773 255.857L156.773 255.861ZM156.01 257.48L155.058 258.284L155.705 259.05L156.657 258.246L156.01 257.48ZM155.058 258.284C154.485 258.768 153.956 258.973 153.465 258.975L153.475 259.975C154.263 259.972 155.009 259.638 155.705 259.05L155.058 258.284ZM153.465 258.975L144.585 259.012L144.595 260.012L153.475 259.975L153.465 258.975ZM144.585 259.012C144.093 259.014 143.56 258.814 142.978 258.335L142.345 259.106C143.054 259.688 143.806 260.015 144.595 260.012L144.585 259.012ZM142.978 258.335L142.01 257.539L141.377 258.31L142.345 259.106L142.978 258.335ZM142.01 257.539C141.474 257.098 141.22 256.571 141.214 255.926L140.214 255.931C140.223 256.886 140.623 257.689 141.377 258.31L142.01 257.539ZM141.214 255.926L141.197 254.326L140.197 254.331L140.214 255.931L141.214 255.926ZM140.702 254.828L144.062 254.814L144.052 253.814L140.692 253.829L140.702 254.828ZM143.557 254.317L143.565 255.076L144.565 255.072L144.557 254.312L143.557 254.317ZM143.565 255.076C143.569 255.469 143.584 255.785 143.624 255.974L144.602 255.774C144.586 255.697 144.569 255.48 144.565 255.072L143.565 255.076ZM143.668 256.1C143.732 256.224 143.827 256.331 143.915 256.419C144.009 256.511 144.124 256.608 144.254 256.708L144.861 255.916C144.749 255.831 144.669 255.762 144.615 255.709C144.555 255.65 144.549 255.631 144.558 255.649L143.668 256.1ZM144.254 256.708C144.502 256.898 144.737 257.055 144.94 257.135L145.302 256.205C145.238 256.18 145.097 256.098 144.861 255.916L144.254 256.708ZM145.028 257.161C145.22 257.198 145.581 257.208 146.047 257.206L146.036 256.206C145.542 256.208 145.289 256.194 145.214 256.179L145.028 257.161ZM146.047 257.206L151.966 257.181L151.956 256.181L146.036 256.206L146.047 257.206ZM151.966 257.181C152.432 257.179 152.793 257.166 152.984 257.127L152.778 256.148C152.703 256.163 152.451 256.179 151.956 256.181L151.966 257.181ZM153.071 257.101C153.273 257.019 153.505 256.86 153.748 256.668L153.127 255.882C152.894 256.065 152.754 256.148 152.691 256.174L153.071 257.101ZM153.748 256.668C153.879 256.565 153.996 256.462 154.088 256.359C154.172 256.266 154.277 256.127 154.319 255.953L153.347 255.714C153.352 255.693 153.358 255.678 153.362 255.669C153.366 255.66 153.368 255.656 153.368 255.656C153.369 255.656 153.367 255.659 153.362 255.665C153.358 255.671 153.351 255.679 153.342 255.689C153.302 255.733 153.234 255.797 153.127 255.882L153.748 256.668ZM154.299 256.017C154.351 255.884 154.375 255.728 154.388 255.581C154.402 255.425 154.407 255.24 154.405 255.031L153.405 255.035C153.407 255.226 153.402 255.375 153.392 255.485C153.387 255.541 153.381 255.582 153.375 255.612C153.37 255.644 153.365 255.654 153.367 255.65L154.299 256.017ZM154.405 255.031L154.372 251.791L153.372 251.795L153.405 255.035L154.405 255.031ZM154.368 251.729C154.314 251.332 154.037 250.99 153.718 250.704L153.053 251.447C153.326 251.692 153.373 251.828 153.377 251.857L154.368 251.729ZM153.688 250.679C153.443 250.491 153.174 250.318 152.915 250.267L152.729 251.248C152.721 251.247 152.748 251.252 152.819 251.292C152.886 251.329 152.973 251.387 153.082 251.471L153.688 250.679ZM153.003 250.293C152.863 250.237 152.689 250.214 152.53 250.201C152.356 250.186 152.144 250.181 151.896 250.182L151.906 251.181C152.139 251.181 152.32 251.186 152.453 251.197C152.6 251.209 152.647 251.225 152.641 251.223L153.003 250.293ZM151.896 250.182L144.896 250.211L144.906 251.211L151.906 251.181L151.896 250.182ZM144.896 250.211C144.405 250.213 143.872 250.012 143.29 249.534L142.657 250.304C143.365 250.887 144.118 251.214 144.906 251.211L144.896 250.211ZM143.29 249.534L142.322 248.738L141.689 249.509L142.657 250.304L143.29 249.534ZM142.322 248.738C141.786 248.297 141.532 247.77 141.525 247.125L140.525 247.129C140.535 248.085 140.934 248.888 141.689 249.509L142.322 248.738ZM141.525 247.125L141.485 243.125L140.485 243.129L140.525 247.129L141.525 247.125ZM141.485 243.125C141.479 242.481 141.722 241.951 142.249 241.506L141.601 240.741C140.859 241.368 140.476 242.174 140.485 243.129L141.485 243.125ZM142.249 241.506L143.201 240.702L142.553 239.937L141.601 240.741L142.249 241.506ZM143.201 240.702C143.774 240.218 144.302 240.014 144.794 240.011L144.784 239.011C143.996 239.015 143.25 239.349 142.553 239.937L143.201 240.702ZM144.794 240.011L153.274 239.976L153.264 238.976L144.784 239.011L144.794 240.011ZM153.274 239.976C153.766 239.974 154.298 240.174 154.881 240.653L155.513 239.882C154.805 239.3 154.052 238.973 153.264 238.976L153.274 239.976ZM154.881 240.653L155.849 241.449L156.481 240.678L155.513 239.882L154.881 240.653ZM155.849 241.449C156.385 241.89 156.639 242.417 156.645 243.062L157.645 243.057C157.635 242.102 157.236 241.299 156.481 240.678L155.849 241.449ZM156.645 243.062L156.661 244.662L157.661 244.657L157.645 243.057L156.645 243.062ZM157.156 244.16L153.796 244.174L153.806 245.174L157.166 245.159L157.156 244.16ZM154.301 244.671L154.293 243.912L153.293 243.916L153.301 244.676L154.301 244.671ZM154.293 243.912C154.291 243.703 154.283 243.52 154.265 243.369C154.25 243.235 154.222 243.068 154.151 242.929L153.261 243.379C153.249 243.355 153.249 243.348 153.255 243.372C153.26 243.393 153.266 243.427 153.272 243.478C153.284 243.581 153.292 243.725 153.293 243.916L154.293 243.912ZM154.195 243.054C154.157 242.874 154.06 242.725 153.965 242.613C153.866 242.496 153.742 242.385 153.604 242.28L152.998 243.072C153.102 243.152 153.166 243.213 153.203 243.256C153.242 243.303 153.226 243.301 153.217 243.254L154.195 243.054ZM153.604 242.28C153.359 242.091 153.09 241.918 152.831 241.867L152.645 242.849C152.637 242.847 152.664 242.852 152.735 242.892C152.802 242.93 152.889 242.988 152.998 243.072L153.604 242.28ZM152.919 241.893C152.779 241.838 152.605 241.814 152.446 241.801C152.272 241.787 152.059 241.781 151.812 241.782L151.822 242.782C152.055 242.781 152.235 242.787 152.369 242.798C152.516 242.81 152.563 242.826 152.557 242.823L152.919 241.893ZM151.812 241.782L146.292 241.805L146.302 242.805L151.822 242.782L151.812 241.782ZM146.292 241.805C146.045 241.806 145.832 241.814 145.659 241.83C145.5 241.844 145.327 241.869 145.188 241.926L145.568 242.852C145.562 242.855 145.609 242.839 145.756 242.826C145.889 242.813 146.07 242.806 146.302 242.805L146.292 241.805ZM145.275 241.899C145.017 241.952 144.752 242.128 144.51 242.318L145.132 243.105C145.239 243.02 145.325 242.961 145.391 242.923C145.461 242.882 145.488 242.877 145.481 242.879L145.275 241.899ZM144.51 242.318C144.264 242.512 144.024 242.742 143.92 243.009L144.852 243.377C144.848 243.387 144.855 243.365 144.906 243.309C144.954 243.256 145.027 243.188 145.132 243.105L144.51 242.318ZM143.9 243.074C143.875 243.178 143.864 243.311 143.859 243.439C143.853 243.578 143.851 243.751 143.854 243.955L144.854 243.951C144.852 243.756 144.853 243.602 144.858 243.487C144.861 243.43 144.864 243.386 144.867 243.354C144.871 243.319 144.873 243.308 144.872 243.312L143.9 243.074ZM143.854 243.955L143.877 246.275L144.877 246.271L144.854 243.951L143.854 243.955ZM143.877 246.275C143.881 246.667 143.896 246.983 143.936 247.173L144.914 246.973C144.898 246.896 144.881 246.679 144.877 246.271L143.877 246.275ZM143.98 247.298C144.043 247.422 144.138 247.53 144.227 247.617C144.321 247.71 144.436 247.807 144.566 247.907L145.172 247.115C145.061 247.03 144.981 246.961 144.927 246.907C144.867 246.848 144.861 246.83 144.87 246.847L143.98 247.298ZM144.566 247.907C144.813 248.097 145.048 248.253 145.252 248.334L145.614 247.404C145.55 247.378 145.409 247.297 145.172 247.115L144.566 247.907ZM145.34 248.359C145.532 248.397 145.893 248.407 146.358 248.405L146.348 247.405C145.854 247.407 145.601 247.393 145.526 247.378L145.34 248.359ZM146.358 248.405L153.358 248.375L153.348 247.375L146.348 247.405L146.358 248.405ZM166.46 233.821L166.96 233.818L166.955 233.318L166.455 233.321L166.46 233.821ZM166.516 239.42L166.016 239.422L166.021 239.922L166.521 239.92L166.516 239.42ZM171.636 239.399L171.937 239.001L171.801 238.898L171.631 238.899L171.636 239.399ZM172.242 240.036L171.77 240.196L171.787 240.248L171.816 240.295L172.242 240.036ZM172.384 242.196L172.389 242.696L172.889 242.693L172.884 242.194L172.384 242.196ZM166.544 242.22L166.539 241.72L166.039 241.722L166.044 242.222L166.544 242.22ZM166.72 255.779L166.231 255.879L166.245 255.945L166.275 256.005L166.72 255.779ZM167.728 256.575L167.547 257.04L167.59 257.057L167.635 257.066L167.728 256.575ZM172.288 256.596L172.589 256.198L172.454 256.095L172.283 256.096L172.288 256.596ZM172.895 257.233L172.422 257.393L172.44 257.445L172.469 257.492L172.895 257.233ZM173.037 259.393L173.042 259.893L173.542 259.891L173.537 259.391L173.037 259.393ZM165.269 258.625L165.585 258.24L165.269 258.625ZM164.301 257.829L163.984 258.215L164.301 257.829ZM163.184 242.234L163.684 242.232L163.679 241.732L163.179 241.734L163.184 242.234ZM161.264 242.242L160.963 242.64L161.099 242.743L161.269 242.742L161.264 242.242ZM160.618 241.645L160.145 241.805L160.163 241.857L160.192 241.904L160.618 241.645ZM160.516 239.445L160.511 238.945L160.011 238.948L160.016 239.448L160.516 239.445ZM163.156 239.434L163.161 239.934L163.661 239.932L163.656 239.432L163.156 239.434ZM163.1 233.835L163.095 233.335L162.595 233.337L162.6 233.837L163.1 233.835ZM165.96 233.823L166.016 239.422L167.016 239.418L166.96 233.818L165.96 233.823ZM166.521 239.92L171.641 239.899L171.631 238.899L166.511 238.92L166.521 239.92ZM171.335 239.796C171.498 239.92 171.613 240.021 171.688 240.101C171.771 240.187 171.777 240.218 171.77 240.196L172.715 239.876C172.653 239.695 172.53 239.539 172.411 239.414C172.284 239.281 172.124 239.143 171.937 239.001L171.335 239.796ZM171.816 240.295C171.798 240.265 171.8 240.256 171.811 240.298C171.82 240.334 171.83 240.39 171.84 240.471C171.858 240.633 171.871 240.859 171.874 241.158L172.874 241.154C172.87 240.839 172.858 240.572 172.833 240.36C172.811 240.176 172.773 239.948 172.669 239.777L171.816 240.295ZM171.874 241.158L171.884 242.198L172.884 242.194L172.874 241.154L171.874 241.158ZM172.379 241.696L166.539 241.72L166.549 242.72L172.389 242.696L172.379 241.696ZM166.044 242.222L166.172 254.982L167.172 254.977L167.044 242.218L166.044 242.222ZM166.172 254.982C166.176 255.374 166.191 255.69 166.231 255.879L167.209 255.679C167.193 255.602 167.176 255.385 167.172 254.977L166.172 254.982ZM166.275 256.005C166.339 256.129 166.433 256.236 166.522 256.324C166.616 256.416 166.731 256.513 166.861 256.613L167.468 255.821C167.356 255.736 167.276 255.667 167.222 255.614C167.162 255.555 167.156 255.536 167.165 255.554L166.275 256.005ZM166.861 256.613C167.109 256.803 167.343 256.96 167.547 257.04L167.909 256.11C167.845 256.085 167.704 256.003 167.468 255.821L166.861 256.613ZM167.635 257.066C167.827 257.103 168.188 257.113 168.654 257.111L168.643 256.111C168.149 256.113 167.896 256.099 167.821 256.084L167.635 257.066ZM168.654 257.111L172.293 257.096L172.283 256.096L168.643 256.111L168.654 257.111ZM171.988 256.993C172.15 257.117 172.265 257.218 172.341 257.298C172.423 257.384 172.429 257.415 172.422 257.393L173.368 257.073C173.305 256.892 173.183 256.736 173.063 256.611C172.937 256.478 172.776 256.34 172.589 256.198L171.988 256.993ZM172.469 257.492C172.45 257.462 172.453 257.453 172.463 257.495C172.472 257.532 172.483 257.588 172.492 257.668C172.511 257.83 172.523 258.056 172.526 258.355L173.526 258.351C173.523 258.036 173.51 257.769 173.485 257.558C173.464 257.373 173.425 257.145 173.321 256.974L172.469 257.492ZM172.526 258.355L172.537 259.395L173.537 259.391L173.526 258.351L172.526 258.355ZM173.032 258.893L167.192 258.917L167.202 259.917L173.042 259.893L173.032 258.893ZM167.192 258.917C166.7 258.919 166.167 258.719 165.585 258.24L164.952 259.011C165.661 259.593 166.413 259.921 167.202 259.917L167.192 258.917ZM165.585 258.24L164.617 257.444L163.984 258.215L164.952 259.011L165.585 258.24ZM164.617 257.444C164.081 257.003 163.827 256.476 163.821 255.831L162.821 255.836C162.83 256.791 163.23 257.594 163.984 258.215L164.617 257.444ZM163.821 255.831L163.684 242.232L162.684 242.236L162.821 255.836L163.821 255.831ZM163.179 241.734L161.259 241.742L161.269 242.742L163.189 242.734L163.179 241.734ZM161.565 241.845C161.398 241.718 161.27 241.612 161.179 241.528C161.133 241.486 161.1 241.452 161.076 241.425C161.052 241.398 161.044 241.385 161.044 241.386L160.192 241.904C160.27 242.031 160.385 242.152 160.502 242.26C160.626 242.375 160.781 242.502 160.963 242.64L161.565 241.845ZM161.091 241.485C161.091 241.487 161.09 241.482 161.086 241.467C161.083 241.453 161.079 241.434 161.075 241.408C161.067 241.356 161.059 241.287 161.052 241.199C161.038 241.022 161.029 240.784 161.026 240.483L160.026 240.488C160.03 240.8 160.039 241.062 160.056 241.272C160.071 241.467 160.095 241.66 160.145 241.805L161.091 241.485ZM161.026 240.483L161.016 239.443L160.016 239.448L160.026 240.488L161.026 240.483ZM160.521 239.945L163.161 239.934L163.151 238.934L160.511 238.945L160.521 239.945ZM163.656 239.432L163.6 233.833L162.6 233.837L162.656 239.436L163.656 239.432ZM163.105 234.335L166.465 234.321L166.455 233.321L163.095 233.335L163.105 234.335ZM192.237 255.712L192.554 255.327L192.231 255.061L191.914 255.329L192.237 255.712ZM194.657 257.702L194.981 258.085L195.439 257.699L194.974 257.317L194.657 257.702ZM193.706 258.506L194.029 258.889L193.706 258.506ZM192.713 259.23L192.876 259.704L192.895 259.697L192.914 259.689L192.713 259.23ZM178.178 257.771L178.494 257.386L178.178 257.771ZM178.009 240.972L178.333 241.355L178.009 240.972ZM178.961 240.168L178.637 239.785L178.961 240.168ZM192.121 240.113L192.429 239.721L192.419 239.713L192.407 239.705L192.121 240.113ZM193.129 240.909L192.821 241.3L192.827 241.305L192.833 241.31L193.129 240.909ZM194.191 251.104L194.196 251.604L194.696 251.602L194.691 251.102L194.191 251.104ZM180.511 251.161L180.506 250.661L180.006 250.664L180.011 251.164L180.511 251.161ZM180.597 255.721L180.108 255.821L180.122 255.887L180.152 255.947L180.597 255.721ZM181.605 256.517L181.424 256.982L181.467 256.999L181.512 257.007L181.605 256.517ZM191.245 256.436L191.408 256.91L191.427 256.903L191.446 256.895L191.245 256.436ZM190.805 248.518L190.81 249.018L191.31 249.016L191.305 248.516L190.805 248.518ZM190.67 242.999L190.181 243.099L190.194 243.165L190.225 243.224L190.67 242.999ZM189.702 242.203L189.521 242.668L189.564 242.685L189.609 242.694L189.702 242.203ZM181.462 242.238L181.565 242.727L181.61 242.718L181.652 242.701L181.462 242.238ZM180.47 243.042L180.004 242.858L179.992 242.889L179.984 242.922L180.47 243.042ZM180.485 248.562L179.985 248.564L179.99 249.064L180.49 249.062L180.485 248.562ZM191.921 256.098L194.341 258.087L194.974 257.317L192.554 255.327L191.921 256.098ZM194.334 257.319L193.382 258.123L194.029 258.889L194.981 258.085L194.334 257.319ZM193.382 258.123C193.148 258.32 192.957 258.473 192.804 258.584C192.645 258.7 192.552 258.754 192.511 258.771L192.914 259.689C193.06 259.626 193.225 259.518 193.397 259.393C193.575 259.263 193.787 259.094 194.029 258.889L193.382 258.123ZM192.55 258.756C192.479 258.781 192.24 258.812 191.749 258.814L191.759 259.814C192.227 259.812 192.628 259.788 192.876 259.704L192.55 258.756ZM191.749 258.814L181.069 258.859L181.079 259.859L191.759 259.814L191.749 258.814ZM181.069 258.859C180.577 258.861 180.044 258.661 179.462 258.182L178.829 258.953C179.538 259.535 180.29 259.862 181.079 259.859L181.069 258.859ZM179.462 258.182L178.494 257.386L177.861 258.157L178.829 258.953L179.462 258.182ZM178.494 257.386C177.958 256.945 177.704 256.418 177.698 255.773L176.698 255.777C176.707 256.733 177.107 257.536 177.861 258.157L178.494 257.386ZM177.698 255.773L177.569 242.974L176.569 242.978L176.698 255.777L177.698 255.773ZM177.569 242.974C177.563 242.329 177.806 241.8 178.333 241.355L177.685 240.589C176.943 241.216 176.56 242.023 176.569 242.978L177.569 242.974ZM178.333 241.355L179.285 240.551L178.637 239.785L177.685 240.589L178.333 241.355ZM179.285 240.551C179.858 240.067 180.386 239.862 180.878 239.86L180.868 238.86C180.08 238.863 179.334 239.197 178.637 239.785L179.285 240.551ZM180.878 239.86L190.198 239.821L190.188 238.821L180.868 238.86L180.878 239.86ZM190.198 239.821C190.576 239.819 191.113 240.012 191.834 240.521L192.407 239.705C191.625 239.153 190.877 238.818 190.188 238.821L190.198 239.821ZM191.813 240.505L192.821 241.3L193.437 240.517L192.429 239.721L191.813 240.505ZM192.833 241.31C193.341 241.686 193.602 242.198 193.609 242.907L194.609 242.902C194.599 241.904 194.206 241.086 193.425 240.507L192.833 241.31ZM193.609 242.907L193.691 251.106L194.691 251.102L194.609 242.902L193.609 242.907ZM194.186 250.604L180.506 250.661L180.516 251.661L194.196 251.604L194.186 250.604ZM180.011 251.164L180.049 254.923L181.049 254.919L181.011 251.159L180.011 251.164ZM180.049 254.923C180.053 255.316 180.068 255.632 180.108 255.821L181.086 255.621C181.07 255.544 181.053 255.327 181.049 254.919L180.049 254.923ZM180.152 255.947C180.216 256.071 180.311 256.178 180.399 256.265C180.493 256.358 180.608 256.455 180.739 256.555L181.345 255.763C181.233 255.678 181.153 255.609 181.099 255.555C181.039 255.497 181.033 255.478 181.042 255.496L180.152 255.947ZM180.739 256.555C180.986 256.745 181.221 256.902 181.424 256.982L181.786 256.052C181.722 256.027 181.581 255.945 181.345 255.763L180.739 256.555ZM181.512 257.007C181.704 257.045 182.065 257.055 182.531 257.053L182.521 256.053C182.026 256.055 181.773 256.041 181.698 256.026L181.512 257.007ZM182.531 257.053L190.291 257.02L190.28 256.02L182.521 256.053L182.531 257.053ZM190.291 257.02C190.759 257.018 191.16 256.994 191.408 256.91L191.082 255.963C191.011 255.987 190.772 256.018 190.28 256.02L190.291 257.02ZM191.446 256.895C191.592 256.832 191.757 256.724 191.928 256.599C192.107 256.469 192.319 256.3 192.561 256.095L191.914 255.329C191.68 255.526 191.488 255.679 191.336 255.79C191.177 255.907 191.084 255.96 191.043 255.978L191.446 256.895ZM191.305 248.516L191.257 243.756L190.257 243.761L190.305 248.52L191.305 248.516ZM191.257 243.756C191.255 243.548 191.247 243.365 191.229 243.214C191.214 243.08 191.186 242.913 191.115 242.773L190.225 243.224C190.213 243.2 190.213 243.192 190.219 243.217C190.224 243.238 190.23 243.272 190.236 243.323C190.248 243.425 190.256 243.569 190.257 243.761L191.257 243.756ZM191.159 242.899C191.121 242.718 191.024 242.57 190.929 242.458C190.83 242.341 190.706 242.23 190.568 242.125L189.962 242.917C190.066 242.996 190.13 243.058 190.167 243.101C190.206 243.148 190.19 243.146 190.181 243.099L191.159 242.899ZM190.568 242.125C190.323 241.936 190.054 241.763 189.795 241.712L189.609 242.694C189.601 242.692 189.628 242.697 189.699 242.737C189.766 242.775 189.853 242.833 189.962 242.917L190.568 242.125ZM189.883 241.738C189.743 241.683 189.569 241.659 189.41 241.646C189.236 241.632 189.023 241.626 188.776 241.627L188.786 242.627C189.019 242.626 189.199 242.632 189.333 242.643C189.48 242.655 189.527 242.67 189.521 242.668L189.883 241.738ZM188.776 241.627L182.376 241.654L182.386 242.654L188.786 242.627L188.776 241.627ZM182.376 241.654C182.129 241.655 181.916 241.662 181.743 241.678C181.584 241.693 181.411 241.718 181.272 241.774L181.652 242.701C181.646 242.704 181.693 242.687 181.84 242.674C181.973 242.662 182.154 242.655 182.386 242.654L182.376 241.654ZM181.359 241.748C181.101 241.8 180.836 241.976 180.594 242.166L181.216 242.953C181.324 242.869 181.409 242.81 181.475 242.772C181.545 242.731 181.572 242.726 181.565 242.727L181.359 241.748ZM180.594 242.166C180.348 242.36 180.108 242.591 180.004 242.858L180.936 243.225C180.932 243.236 180.939 243.214 180.99 243.157C181.038 243.104 181.111 243.036 181.216 242.953L180.594 242.166ZM179.984 242.922C179.959 243.027 179.949 243.159 179.943 243.288C179.937 243.427 179.936 243.6 179.938 243.804L180.938 243.8C180.936 243.604 180.937 243.45 180.942 243.336C180.945 243.279 180.948 243.235 180.951 243.202C180.955 243.167 180.957 243.156 180.956 243.161L179.984 242.922ZM179.938 243.804L179.985 248.564L180.985 248.559L180.938 243.8L179.938 243.804ZM180.49 249.062L190.81 249.018L190.8 248.018L180.48 248.062L180.49 249.062ZM198.869 239.284L198.864 238.785L198.364 238.787L198.369 239.287L198.869 239.284ZM201.23 239.395L201.011 239.843L201.053 239.863L201.097 239.876L201.23 239.395ZM201.995 239.871L201.679 240.257L201.683 240.261L201.995 239.871ZM202.645 240.869L202.145 240.871L202.15 241.371L202.65 241.369L202.645 240.869ZM202.805 240.868L202.81 241.368L203.31 241.366L203.305 240.866L202.805 240.868ZM203.675 239.864L203.933 240.294L203.94 240.29L203.675 239.864ZM204.63 239.34L204.487 238.86L204.477 238.863L204.467 238.867L204.63 239.34ZM211.237 240.033L211.553 239.647L211.237 240.033ZM212.205 240.828L212.529 241.211L212.986 240.825L212.521 240.443L212.205 240.828ZM209.825 242.838L209.509 243.224L209.831 243.489L210.149 243.221L209.825 242.838ZM209.341 242.44L209.657 242.055L209.651 242.05L209.644 242.045L209.341 242.44ZM208.778 242.123L208.597 242.588L208.639 242.605L208.684 242.614L208.778 242.123ZM205.138 242.138L204.995 241.658L204.985 241.661L204.975 241.664L205.138 242.138ZM204.183 242.662L203.918 242.237L204.183 242.662ZM203.349 243.306L202.918 243.05L203.349 243.306ZM203.389 259.265L203.394 259.765L203.894 259.763L203.889 259.263L203.389 259.265ZM200.029 259.279L199.529 259.282L199.534 259.782L200.034 259.779L200.029 259.279ZM199.786 242.961L199.296 243.061L199.31 243.126L199.341 243.186L199.786 242.961ZM199.381 242.482L199.684 242.086L199.381 242.482ZM198.936 242.044L198.447 242.144L198.461 242.21L198.492 242.27L198.936 242.044ZM198.874 239.784L200.274 239.779L200.264 238.779L198.864 238.785L198.874 239.784ZM200.274 239.779C200.502 239.778 200.68 239.786 200.812 239.802C200.878 239.81 200.927 239.819 200.963 239.828C201 239.837 201.013 239.844 201.011 239.843L201.449 238.946C201.292 238.869 201.105 238.831 200.926 238.81C200.738 238.787 200.516 238.778 200.264 238.779L200.274 239.779ZM201.097 239.876C201.176 239.898 201.362 239.996 201.679 240.257L202.311 239.486C201.982 239.216 201.658 238.996 201.363 238.913L201.097 239.876ZM201.683 240.261C202.077 240.576 202.144 240.781 202.145 240.871L203.145 240.867C203.139 240.316 202.773 239.856 202.306 239.482L201.683 240.261ZM202.65 241.369L202.81 241.368L202.8 240.368L202.64 240.369L202.65 241.369ZM203.305 240.866C203.305 240.864 203.305 240.853 203.316 240.828C203.327 240.801 203.351 240.76 203.399 240.706C203.496 240.593 203.666 240.454 203.933 240.294L203.416 239.435C203.101 239.624 202.834 239.826 202.641 240.048C202.448 240.272 202.302 240.548 202.305 240.87L203.305 240.866ZM203.94 240.29C204.429 239.987 204.697 239.846 204.792 239.814L204.467 238.867C204.243 238.942 203.875 239.151 203.41 239.439L203.94 240.29ZM204.772 239.82C204.883 239.788 205.152 239.758 205.634 239.756L205.624 238.756C205.146 238.758 204.748 238.784 204.487 238.86L204.772 239.82ZM205.634 239.756L209.314 239.741L209.304 238.741L205.624 238.756L205.634 239.756ZM209.314 239.741C209.805 239.739 210.338 239.939 210.92 240.418L211.553 239.647C210.845 239.065 210.092 238.737 209.304 238.741L209.314 239.741ZM210.92 240.418L211.888 241.214L212.521 240.443L211.553 239.647L210.92 240.418ZM211.881 240.446L209.501 242.456L210.149 243.221L212.529 241.211L211.881 240.446ZM210.141 242.453L209.657 242.055L209.025 242.826L209.509 243.224L210.141 242.453ZM209.644 242.045C209.398 241.856 209.13 241.683 208.871 241.632L208.684 242.614C208.677 242.612 208.704 242.617 208.775 242.657C208.842 242.695 208.929 242.753 209.038 242.836L209.644 242.045ZM208.959 241.658C208.818 241.603 208.645 241.579 208.485 241.566C208.312 241.552 208.099 241.546 207.852 241.547L207.862 242.547C208.094 242.546 208.275 242.551 208.409 242.563C208.556 242.575 208.603 242.59 208.597 242.588L208.959 241.658ZM207.852 241.547L206.132 241.554L206.142 242.554L207.862 242.547L207.852 241.547ZM206.132 241.554C205.654 241.556 205.256 241.582 204.995 241.658L205.28 242.618C205.391 242.586 205.66 242.556 206.142 242.554L206.132 241.554ZM204.975 241.664C204.751 241.74 204.383 241.949 203.918 242.237L204.448 243.088C204.937 242.785 205.205 242.644 205.301 242.612L204.975 241.664ZM203.918 242.237C203.672 242.389 203.468 242.526 203.31 242.648C203.168 242.757 203.01 242.894 202.918 243.05L203.781 243.561C203.767 243.584 203.787 243.546 203.924 243.441C204.044 243.348 204.216 243.231 204.448 243.088L203.918 242.237ZM202.918 243.05C202.83 243.2 202.789 243.376 202.767 243.534C202.744 243.701 202.735 243.894 202.737 244.108L203.737 244.104C203.735 243.918 203.744 243.778 203.758 243.678C203.773 243.569 203.79 243.545 203.781 243.561L202.918 243.05ZM202.737 244.108L202.889 259.267L203.889 259.263L203.737 244.104L202.737 244.108ZM203.384 258.765L200.024 258.779L200.034 259.779L203.394 259.765L203.384 258.765ZM200.529 259.277L200.373 243.718L199.373 243.722L199.529 259.282L200.529 259.277ZM200.373 243.718C200.371 243.509 200.363 243.327 200.345 243.176C200.33 243.042 200.302 242.874 200.231 242.735L199.341 243.186C199.328 243.162 199.329 243.154 199.335 243.178C199.34 243.199 199.346 243.234 199.352 243.285C199.364 243.387 199.371 243.531 199.373 243.722L200.373 243.718ZM200.275 242.86C200.237 242.68 200.14 242.532 200.044 242.419C199.946 242.303 199.822 242.192 199.684 242.086L199.078 242.878C199.182 242.958 199.246 243.02 199.283 243.063C199.322 243.11 199.306 243.108 199.296 243.061L200.275 242.86ZM199.684 242.086C199.573 242.001 199.493 241.932 199.438 241.879C199.379 241.82 199.372 241.801 199.381 241.819L198.492 242.27C198.555 242.394 198.65 242.501 198.738 242.589C198.832 242.681 198.947 242.778 199.078 242.878L199.684 242.086ZM199.426 241.944C199.41 241.867 199.393 241.65 199.388 241.242L198.388 241.246C198.392 241.639 198.407 241.955 198.447 242.144L199.426 241.944ZM199.388 241.242L199.369 239.282L198.369 239.287L198.388 241.246L199.388 241.242ZM230.32 248.352L230.636 247.967L230.32 248.352ZM231.288 249.148L230.971 249.534L231.288 249.148ZM231.372 257.548L231.048 257.165L231.372 257.548ZM230.42 258.352L230.744 258.735L230.42 258.352ZM216.732 257.609L217.048 257.224L216.732 257.609ZM215.736 254.014L215.731 253.514L215.231 253.516L215.236 254.016L215.736 254.014ZM219.096 253.999L219.596 253.997L219.591 253.497L219.091 253.499L219.096 253.999ZM219.151 255.559L218.662 255.659L218.676 255.725L218.707 255.785L219.151 255.559ZM220.16 256.355L219.978 256.82L220.021 256.837L220.066 256.846L220.16 256.355ZM227.919 256.322L228.022 256.812L228.067 256.803L228.11 256.786L227.919 256.322ZM228.871 255.518L228.405 255.335L228.393 255.366L228.385 255.399L228.871 255.518ZM228.911 251.478L229.411 251.476L229.411 251.445L229.406 251.414L228.911 251.478ZM228.424 250.76L228.756 250.389L228.742 250.376L228.727 250.364L228.424 250.76ZM227.86 250.443L227.679 250.908L227.722 250.925L227.767 250.933L227.86 250.443ZM218.012 249.604L217.695 249.989L218.012 249.604ZM217.044 248.808L217.36 248.423L217.044 248.808ZM216.963 240.809L217.287 241.191L216.963 240.809ZM217.915 240.005L217.591 239.622L217.915 240.005ZM230.235 239.953L230.552 239.567L230.235 239.953ZM231.203 240.749L230.887 241.134L230.887 241.134L231.203 240.749ZM232.199 244.345L232.204 244.845L232.704 244.842L232.699 244.342L232.199 244.345ZM228.839 244.359L228.339 244.361L228.344 244.861L228.844 244.859L228.839 244.359ZM228.744 242.839L228.255 242.939L228.269 243.005L228.299 243.065L228.744 242.839ZM227.776 242.043L227.595 242.508L227.638 242.525L227.683 242.534L227.776 242.043ZM220.416 242.074L220.519 242.564L220.564 242.555L220.607 242.537L220.416 242.074ZM219.424 242.878L218.958 242.694L218.946 242.726L218.938 242.759L219.424 242.878ZM219.463 246.758L218.974 246.858L218.988 246.924L219.018 246.983L219.463 246.758ZM220.471 247.554L220.29 248.019L220.333 248.036L220.378 248.044L220.471 247.554ZM228.397 248.06C228.888 248.058 229.421 248.259 230.003 248.738L230.636 247.967C229.928 247.385 229.175 247.057 228.387 247.061L228.397 248.06ZM230.003 248.738L230.971 249.534L231.604 248.763L230.636 247.967L230.003 248.738ZM230.971 249.534C231.507 249.974 231.761 250.502 231.768 251.146L232.768 251.142C232.758 250.187 232.359 249.384 231.604 248.763L230.971 249.534ZM231.768 251.146L231.812 255.546L232.812 255.542L232.768 251.142L231.768 251.146ZM231.812 255.546C231.818 256.191 231.575 256.72 231.048 257.165L231.696 257.931C232.438 257.304 232.821 256.497 232.812 255.542L231.812 255.546ZM231.048 257.165L230.096 257.969L230.744 258.735L231.696 257.931L231.048 257.165ZM230.096 257.969C229.523 258.453 228.995 258.658 228.503 258.66L228.513 259.66C229.301 259.657 230.047 259.323 230.744 258.735L230.096 257.969ZM228.503 258.66L219.623 258.697L219.633 259.697L228.513 259.66L228.503 258.66ZM219.623 258.697C219.131 258.699 218.599 258.499 218.016 258.02L217.384 258.791C218.092 259.373 218.845 259.7 219.633 259.697L219.623 258.697ZM218.016 258.02L217.048 257.224L216.416 257.995L217.384 258.791L218.016 258.02ZM217.048 257.224C216.512 256.783 216.258 256.256 216.252 255.611L215.252 255.616C215.262 256.571 215.661 257.374 216.416 257.995L217.048 257.224ZM216.252 255.611L216.236 254.011L215.236 254.016L215.252 255.616L216.252 255.611ZM215.741 254.514L219.101 254.499L219.091 253.499L215.731 253.514L215.741 254.514ZM218.596 254.002L218.603 254.762L219.603 254.757L219.596 253.997L218.596 254.002ZM218.603 254.762C218.607 255.154 218.622 255.47 218.662 255.659L219.641 255.459C219.625 255.382 219.608 255.165 219.603 254.757L218.603 254.762ZM218.707 255.785C218.77 255.909 218.865 256.016 218.953 256.104C219.047 256.196 219.162 256.293 219.293 256.393L219.899 255.601C219.788 255.516 219.708 255.447 219.653 255.394C219.594 255.335 219.587 255.316 219.596 255.334L218.707 255.785ZM219.293 256.393C219.54 256.583 219.775 256.74 219.978 256.82L220.341 255.89C220.276 255.865 220.135 255.783 219.899 255.601L219.293 256.393ZM220.066 256.846C220.259 256.883 220.619 256.893 221.085 256.891L221.075 255.891C220.581 255.893 220.328 255.879 220.253 255.864L220.066 256.846ZM221.085 256.891L227.005 256.866L226.995 255.866L221.075 255.891L221.085 256.891ZM227.005 256.866C227.47 256.864 227.831 256.851 228.022 256.812L227.816 255.833C227.742 255.848 227.489 255.864 226.995 255.866L227.005 256.866ZM228.11 256.786C228.312 256.704 228.543 256.545 228.787 256.353L228.165 255.567C227.932 255.75 227.793 255.833 227.729 255.859L228.11 256.786ZM228.787 256.353C228.918 256.25 229.034 256.147 229.127 256.044C229.21 255.951 229.316 255.812 229.358 255.638L228.385 255.399C228.39 255.378 228.396 255.363 228.4 255.354C228.404 255.346 228.407 255.341 228.407 255.341C228.407 255.341 228.405 255.344 228.401 255.35C228.396 255.356 228.389 255.364 228.38 255.374C228.34 255.418 228.272 255.482 228.165 255.567L228.787 256.353ZM229.338 255.702C229.389 255.569 229.413 255.413 229.426 255.266C229.44 255.11 229.445 254.925 229.443 254.716L228.443 254.72C228.445 254.911 228.44 255.06 228.43 255.171C228.425 255.226 228.42 255.267 228.414 255.297C228.408 255.329 228.404 255.339 228.405 255.335L229.338 255.702ZM229.443 254.716L229.411 251.476L228.411 251.48L228.443 254.72L229.443 254.716ZM229.406 251.414C229.353 251.017 229.075 250.675 228.756 250.389L228.091 251.132C228.364 251.377 228.411 251.513 228.415 251.542L229.406 251.414ZM228.727 250.364C228.481 250.176 228.212 250.003 227.954 249.952L227.767 250.933C227.76 250.932 227.787 250.937 227.858 250.977C227.924 251.014 228.012 251.073 228.121 251.156L228.727 250.364ZM228.041 249.978C227.901 249.922 227.728 249.899 227.568 249.886C227.395 249.871 227.182 249.866 226.935 249.867L226.945 250.867C227.177 250.866 227.358 250.871 227.492 250.882C227.639 250.895 227.686 250.91 227.679 250.908L228.041 249.978ZM226.935 249.867L219.935 249.896L219.945 250.896L226.945 250.867L226.935 249.867ZM219.935 249.896C219.443 249.898 218.91 249.698 218.328 249.219L217.695 249.989C218.404 250.572 219.156 250.899 219.945 250.896L219.935 249.896ZM218.328 249.219L217.36 248.423L216.727 249.194L217.695 249.989L218.328 249.219ZM217.36 248.423C216.824 247.982 216.57 247.455 216.564 246.81L215.564 246.814C215.573 247.77 215.973 248.573 216.727 249.194L217.36 248.423ZM216.564 246.81L216.524 242.81L215.524 242.815L215.564 246.814L216.564 246.81ZM216.524 242.81C216.517 242.166 216.76 241.636 217.287 241.191L216.64 240.426C215.897 241.053 215.514 241.859 215.524 242.815L216.524 242.81ZM217.287 241.191L218.239 240.387L217.591 239.622L216.64 240.426L217.287 241.191ZM218.239 240.387C218.812 239.904 219.341 239.699 219.832 239.696L219.822 238.697C219.034 238.7 218.288 239.034 217.591 239.622L218.239 240.387ZM219.832 239.696L228.312 239.661L228.302 238.661L219.822 238.697L219.832 239.696ZM228.312 239.661C228.804 239.659 229.337 239.859 229.919 240.338L230.552 239.567C229.843 238.985 229.091 238.658 228.302 238.661L228.312 239.661ZM229.919 240.338L230.887 241.134L231.52 240.363L230.552 239.567L229.919 240.338ZM230.887 241.134C231.423 241.575 231.677 242.102 231.683 242.747L232.683 242.743C232.674 241.787 232.274 240.984 231.52 240.363L230.887 241.134ZM231.683 242.747L231.699 244.347L232.699 244.342L232.683 242.743L231.683 242.747ZM232.194 243.845L228.834 243.859L228.844 244.859L232.204 244.845L232.194 243.845ZM229.339 244.357L229.332 243.597L228.332 243.601L228.339 244.361L229.339 244.357ZM229.332 243.597C229.33 243.388 229.321 243.205 229.304 243.054C229.288 242.92 229.26 242.753 229.189 242.614L228.299 243.065C228.287 243.041 228.288 243.033 228.293 243.057C228.298 243.078 228.304 243.112 228.31 243.163C228.322 243.266 228.33 243.41 228.332 243.601L229.332 243.597ZM229.234 242.739C229.196 242.559 229.098 242.41 229.003 242.298C228.904 242.181 228.78 242.071 228.642 241.965L228.036 242.757C228.141 242.837 228.205 242.898 228.241 242.941C228.281 242.988 228.265 242.986 228.255 242.939L229.234 242.739ZM228.642 241.965C228.397 241.776 228.128 241.603 227.869 241.552L227.683 242.534C227.676 242.532 227.703 242.537 227.773 242.577C227.84 242.615 227.927 242.673 228.036 242.757L228.642 241.965ZM227.957 241.578C227.817 241.523 227.644 241.499 227.484 241.486C227.31 241.472 227.098 241.466 226.85 241.467L226.86 242.467C227.093 242.466 227.274 242.472 227.407 242.483C227.555 242.495 227.602 242.511 227.595 242.508L227.957 241.578ZM226.85 241.467L221.33 241.49L221.34 242.49L226.86 242.467L226.85 241.467ZM221.33 241.49C221.083 241.491 220.871 241.499 220.697 241.515C220.538 241.529 220.365 241.554 220.226 241.611L220.607 242.537C220.6 242.54 220.647 242.524 220.794 242.511C220.927 242.498 221.108 242.491 221.34 242.49L221.33 241.49ZM220.313 241.584C220.056 241.637 219.79 241.813 219.549 242.003L220.17 242.79C220.278 242.705 220.364 242.646 220.43 242.608C220.5 242.568 220.527 242.562 220.519 242.564L220.313 241.584ZM219.549 242.003C219.303 242.197 219.062 242.427 218.958 242.694L219.89 243.062C219.886 243.072 219.893 243.05 219.944 242.994C219.992 242.941 220.065 242.873 220.17 242.79L219.549 242.003ZM218.938 242.759C218.913 242.863 218.903 242.996 218.897 243.124C218.892 243.263 218.89 243.436 218.892 243.64L219.892 243.636C219.89 243.441 219.892 243.287 219.897 243.172C219.899 243.115 219.902 243.071 219.905 243.039C219.909 243.004 219.912 242.993 219.911 242.997L218.938 242.759ZM218.892 243.64L218.915 245.96L219.915 245.956L219.892 243.636L218.892 243.64ZM218.915 245.96C218.919 246.353 218.934 246.669 218.974 246.858L219.953 246.658C219.936 246.581 219.919 246.364 219.915 245.956L218.915 245.96ZM219.018 246.983C219.082 247.107 219.177 247.215 219.265 247.302C219.359 247.395 219.474 247.492 219.605 247.592L220.211 246.8C220.099 246.715 220.019 246.646 219.965 246.592C219.905 246.534 219.899 246.515 219.908 246.533L219.018 246.983ZM219.605 247.592C219.852 247.782 220.087 247.938 220.29 248.019L220.652 247.089C220.588 247.063 220.447 246.982 220.211 246.8L219.605 247.592ZM220.378 248.044C220.57 248.082 220.931 248.092 221.397 248.09L221.387 247.09C220.892 247.092 220.639 247.078 220.564 247.063L220.378 248.044ZM221.397 248.09L228.397 248.06L228.387 247.061L221.387 247.09L221.397 248.09Z" fill="black"/>
<path d="M202.524 175H119.737C117.867 174.959 116.388 174.478 115.264 173.6C114.183 172.755 113.035 171.999 111.779 171.455C95.523 164.419 87.1193 152.188 88.0731 133.766C88.2969 129.445 89.3757 125.203 91.3373 121.36C94.9777 114.227 101.033 107.297 108.508 100.487C121.724 88.7364 127.438 77.8446 121.37 68.3013C119.428 73.4107 115.36 75.0125 110.141 74.7177C103.988 81.5219 97.5931 85.9623 90.7464 85.9982C90.2108 85.92 90.0828 85.5916 90.2158 85.1031C90.3202 84.7195 90.5631 84.3899 90.8679 84.1391C96.2205 79.734 100.238 74.3892 103.2 68.3013C102.262 61.9668 103.607 56.9839 108.712 54.2266C114.799 51.2783 121.251 51.2373 128.108 54.2266C140.242 60.104 142.792 70.2553 137.907 83.7214C133.618 92.467 126.524 101.803 117.999 111.44C117.15 112.4 116.387 113.437 115.735 114.544C109.142 125.725 109.523 135.666 116.879 144.367C121.398 148.984 125.901 151.567 130.377 150.742C132.138 150.417 133.715 149.455 134.95 148.14C144.547 137.922 135.955 120.635 118.92 120.978C121.596 107.517 184.192 64.8975 214.399 72.4823C215.053 72.6464 215.651 72.9882 216.125 73.4722C218.196 75.582 219.767 77.9961 221 80.6167C199.593 79.8741 179.569 86.4421 160.748 99.3781C160.515 99.5383 160.313 99.7468 160.167 99.9907C159.405 101.26 159.525 102.13 160.562 102.584C161.139 102.837 161.806 102.758 162.338 102.419C180.613 90.7437 198.424 85.0475 215.661 86.7581C216.412 86.8327 217.093 87.2387 217.54 87.8551C218.695 89.4475 219.448 91.1948 219.826 93.0873C200.183 92.7449 183.148 97.9517 168.829 108.938C168.625 109.095 168.452 109.295 168.344 109.53C168.135 109.986 168.207 110.353 168.641 110.604C169.09 110.864 169.648 110.836 170.108 110.598C187.254 101.715 203.392 98.068 218.091 101.884C219.856 102.608 220.181 105.153 220.439 107.783C202.681 106.479 187.333 111.195 173.533 119.779C173.061 120.072 172.774 120.631 172.893 121.179C172.979 121.574 173.251 121.905 173.766 122.15C174.128 122.322 174.552 122.299 174.912 122.122C188.896 115.271 202.795 112.804 216.586 115.966C217.15 116.095 217.658 116.425 217.991 116.904C219.226 118.682 219.811 120.752 219.775 123.1C203.805 120.482 189.694 121.92 178.382 129.464C176.752 130.659 176.563 131.497 178.334 131.849C178.737 131.929 179.156 131.879 179.536 131.722C190.694 127.105 201.461 125.153 211.763 126.37C212.601 126.468 213.402 126.782 214.079 127.291C216.654 129.229 217.351 131.82 216.202 135.053C203.344 133.54 191.945 134.5 182.747 139.193C182.233 139.455 181.776 139.823 181.397 140.262C179.136 142.88 179.312 145.062 182.719 146.667C183.016 146.807 183.326 146.915 183.643 146.996C190.988 148.871 202.675 143.91 215.028 137.899C212.684 146.896 207.21 154.307 199.611 160.641C199.241 160.949 198.851 161.237 198.457 161.512C196.201 163.083 195.343 164.829 196.909 166.876C199.913 169.568 201.946 172.274 202.524 175Z" fill="black"/>
</svg>
