<svg width="337" height="333" viewBox="0 0 337 333" fill="none" xmlns="http://www.w3.org/2000/svg">
<path d="M334 166.5C334 256.799 259.903 330 168.5 330C77.0969 330 3 256.799 3 166.5C3 76.2014 77.0969 3 168.5 3C259.903 3 334 76.2014 334 166.5Z" fill="#FFC107" stroke="black" stroke-width="6"/>
<path d="M221.976 181.43H130.911C128.853 181.386 127.227 180.868 125.991 179.923C124.801 179.013 123.538 178.198 122.157 177.613C104.275 170.037 95.0312 156.869 96.0804 137.035C96.3266 132.382 97.5132 127.816 99.671 123.677C103.675 115.998 110.337 108.537 118.559 101.204C133.097 88.5528 139.382 76.826 132.707 66.5511C130.571 72.0522 126.096 73.7768 120.356 73.4594C113.587 80.7852 106.552 85.566 99.021 85.6047C98.4318 85.5205 98.2911 85.167 98.4374 84.641C98.5522 84.228 98.8194 83.8732 99.1547 83.6031C105.043 78.8603 109.462 73.1057 112.72 66.5511C111.688 59.731 113.168 54.366 118.784 51.3973C125.479 48.223 132.576 48.1788 140.118 51.3973C153.466 57.7253 156.271 68.6548 150.898 83.1534C146.18 92.5695 138.376 102.621 128.999 112.997C128.065 114.03 127.226 115.147 126.508 116.339C119.256 128.377 119.675 139.081 127.767 148.448C132.738 153.419 137.691 156.2 142.615 155.312C144.552 154.962 146.287 153.926 147.645 152.511C158.202 141.51 148.751 122.896 130.012 123.266C132.956 108.774 201.811 62.8863 235.039 71.0526C235.758 71.2293 236.416 71.5973 236.938 72.1184C239.215 74.39 240.944 76.9891 242.3 79.8106C218.753 79.0112 196.725 86.0827 176.023 100.01C175.766 100.183 175.545 100.407 175.384 100.67C174.546 102.036 174.677 102.973 175.818 103.463C176.453 103.735 177.187 103.65 177.772 103.284C197.874 90.7141 217.466 84.5811 236.427 86.4229C237.253 86.5032 238.002 86.9403 238.494 87.6039C239.764 89.3184 240.593 91.1998 241.009 93.2373C219.401 92.8687 200.662 98.4747 184.912 110.304C184.687 110.472 184.497 110.687 184.378 110.941C184.149 111.432 184.228 111.826 184.705 112.097C185.199 112.377 185.813 112.347 186.319 112.09C205.18 102.527 222.931 98.5999 239.1 102.708C241.042 103.488 241.399 106.228 241.682 109.06C222.149 107.656 205.266 112.734 190.086 121.975C189.568 122.291 189.252 122.893 189.382 123.483C189.477 123.909 189.776 124.264 190.343 124.528C190.741 124.713 191.208 124.688 191.604 124.498C206.985 117.122 222.274 114.466 237.445 117.87C238.065 118.009 238.624 118.364 238.991 118.88C240.349 120.794 240.992 123.023 240.953 125.55C223.385 122.733 207.863 124.281 195.42 132.403C193.628 133.69 193.42 134.592 195.367 134.971C195.81 135.057 196.272 135.003 196.69 134.834C208.963 129.863 220.807 127.761 232.14 129.071C233.061 129.178 233.942 129.515 234.687 130.064C237.52 132.15 238.286 134.94 237.023 138.42C222.878 136.792 210.339 137.825 200.222 142.878C199.657 143.16 199.154 143.556 198.737 144.029C196.25 146.847 196.444 149.197 200.191 150.925C200.517 151.075 200.859 151.191 201.208 151.279C209.287 153.298 222.142 147.956 235.731 141.484C233.152 151.171 227.131 159.15 218.772 165.97C218.365 166.302 217.936 166.612 217.502 166.908C215.021 168.599 214.077 170.479 215.8 172.683C219.104 175.582 221.341 178.495 221.976 181.43Z" fill="black"/>
<path d="M121.809 202.412L112.192 231.852L108.916 231.866L100.054 206.829L91.654 231.938L88.42 231.952L78.2132 202.595L81.4051 202.582L90.1427 227.829L98.667 202.509L101.565 202.497L110.472 227.869L118.827 202.425L121.809 202.412ZM145.259 223.859L128.879 223.928L125.43 231.797L122.196 231.81L135.341 202.355L138.407 202.342L152.142 231.684L148.866 231.698L145.259 223.859ZM144.1 221.344L136.885 205.583L129.988 221.404L144.1 221.344ZM208.064 202.05L198.447 231.49L195.171 231.504L186.309 206.467L177.909 231.576L174.675 231.59L164.468 202.233L167.66 202.22L176.398 227.467L184.922 202.147L187.82 202.135L196.727 227.507L205.082 202.063L208.064 202.05ZM230.88 221.232L212.4 221.31C212.591 223.605 213.492 225.463 215.102 226.884C216.712 228.278 218.735 228.969 221.171 228.959C222.543 228.953 223.801 228.71 224.944 228.229C226.087 227.72 227.074 226.988 227.904 226.033L229.603 227.957C228.635 229.137 227.412 230.039 225.934 230.661C224.485 231.283 222.878 231.598 221.114 231.605C218.846 231.615 216.825 231.147 215.051 230.202C213.306 229.23 211.934 227.892 210.937 226.188C209.94 224.484 209.431 222.554 209.409 220.398C209.387 218.242 209.83 216.308 210.737 214.597C211.672 212.885 212.946 211.549 214.561 210.591C216.203 209.632 218.046 209.148 220.09 209.139C222.134 209.131 223.973 209.599 225.607 210.544C227.24 211.489 228.527 212.814 229.469 214.518C230.409 216.194 230.891 218.124 230.913 220.308L230.88 221.232ZM220.116 211.701C217.988 211.71 216.203 212.404 214.761 213.782C213.346 215.132 212.552 216.899 212.378 219.084L228.044 219.018C227.826 216.835 226.982 215.075 225.513 213.737C224.071 212.371 222.272 211.692 220.116 211.701ZM248.252 209.021C250.324 209.013 252.204 209.481 253.894 210.426C255.583 211.342 256.912 212.653 257.882 214.357C258.851 216.061 259.346 218.005 259.368 220.189C259.39 222.372 258.934 224.32 257.999 226.032C257.064 227.744 255.761 229.08 254.091 230.039C252.42 230.998 250.549 231.481 248.477 231.49C246.629 231.498 244.959 231.113 243.467 230.335C242.004 229.557 240.816 228.428 239.905 226.948L239.949 231.316L237.093 231.328L236.78 200.166L239.762 200.153L239.896 213.424C240.805 211.993 241.97 210.91 243.391 210.176C244.84 209.414 246.46 209.029 248.252 209.021ZM248.241 228.845C249.781 228.839 251.177 228.483 252.43 227.778C253.683 227.044 254.652 226.018 255.339 224.699C256.054 223.38 256.403 221.881 256.386 220.201C256.369 218.521 255.99 217.025 255.249 215.712C254.536 214.399 253.546 213.395 252.279 212.7C251.011 211.978 249.608 211.62 248.068 211.626C246.5 211.633 245.09 212.003 243.837 212.736C242.612 213.441 241.642 214.453 240.927 215.772C240.24 217.091 239.905 218.59 239.922 220.27C239.939 221.95 240.304 223.447 241.017 224.76C241.759 226.072 242.749 227.09 243.988 227.813C245.255 228.508 246.673 228.852 248.241 228.845ZM122.471 244.409L122.766 273.807L119.784 273.82L119.548 250.301L108.197 270.131L106.727 270.137L94.9799 250.53L95.2146 273.923L92.2326 273.936L91.9377 244.537L94.4997 244.526L107.486 266.27L119.909 244.42L122.471 244.409ZM139.22 251.479C142.104 251.466 144.323 252.185 145.878 253.635C147.432 255.056 148.224 257.181 148.252 260.009L148.389 273.7L145.533 273.712L145.499 270.268C144.838 271.419 143.853 272.319 142.544 272.968C141.262 273.618 139.726 273.946 137.934 273.954C135.47 273.964 133.504 273.384 132.036 272.215C130.568 271.045 129.825 269.494 129.805 267.562C129.786 265.686 130.443 264.171 131.776 263.018C133.136 261.864 135.3 261.281 138.268 261.268L145.282 261.239L145.269 259.895C145.25 257.991 144.703 256.552 143.629 255.576C142.555 254.573 140.996 254.075 138.952 254.084C137.552 254.09 136.211 254.333 134.928 254.815C133.644 255.268 132.544 255.903 131.629 256.718L130.262 254.498C131.373 253.541 132.709 252.808 134.272 252.297C135.835 251.759 137.484 251.486 139.22 251.479ZM138.372 271.6C140.052 271.593 141.49 271.209 142.687 270.448C143.883 269.659 144.767 268.535 145.341 267.077L145.305 263.465L138.375 263.494C134.595 263.51 132.718 264.834 132.744 267.466C132.757 268.754 133.258 269.773 134.245 270.525C135.232 271.249 136.608 271.607 138.372 271.6ZM162.413 273.851C160.621 273.859 158.896 273.614 157.239 273.117C155.61 272.592 154.329 271.939 153.398 271.159L154.718 268.801C155.649 269.525 156.817 270.123 158.222 270.593C159.626 271.035 161.085 271.253 162.597 271.246C164.613 271.238 166.094 270.924 167.039 270.304C168.013 269.656 168.494 268.758 168.482 267.61C168.474 266.798 168.202 266.169 167.665 265.723C167.129 265.249 166.453 264.902 165.639 264.682C164.824 264.433 163.744 264.2 162.398 263.981C160.602 263.653 159.157 263.323 158.062 262.991C156.966 262.632 156.022 262.034 155.23 261.197C154.465 260.361 154.076 259.2 154.061 257.716C154.042 255.868 154.797 254.353 156.325 253.171C157.853 251.988 159.989 251.391 162.733 251.38C164.161 251.374 165.591 251.564 167.023 251.95C168.455 252.308 169.636 252.793 170.566 253.405L169.288 255.804C167.455 254.552 165.279 253.931 162.759 253.942C160.855 253.95 159.417 254.292 158.443 254.968C157.498 255.644 157.031 256.528 157.042 257.62C157.05 258.46 157.323 259.131 157.86 259.632C158.425 260.134 159.115 260.509 159.929 260.758C160.744 260.978 161.866 261.211 163.297 261.457C165.064 261.786 166.481 262.116 167.549 262.448C168.616 262.779 169.532 263.349 170.296 264.158C171.06 264.967 171.449 266.085 171.464 267.513C171.483 269.445 170.686 270.988 169.074 272.143C167.489 273.27 165.269 273.839 162.413 273.851ZM188.658 272.187C188.103 272.693 187.407 273.088 186.57 273.372C185.76 273.627 184.907 273.757 184.011 273.76C181.939 273.769 180.338 273.216 179.207 272.101C178.075 270.985 177.5 269.406 177.479 267.362L177.345 254.007L173.397 254.023L173.372 251.503L177.32 251.487L177.271 246.657L180.253 246.644L180.302 251.474L187.022 251.446L187.047 253.966L180.327 253.994L180.459 267.181C180.473 268.497 180.805 269.504 181.456 270.201C182.134 270.87 183.09 271.202 184.322 271.197C184.938 271.195 185.525 271.094 186.083 270.896C186.669 270.697 187.17 270.415 187.586 270.049L188.658 272.187ZM212.455 263.309L193.975 263.387C194.166 265.682 195.067 267.54 196.677 268.961C198.287 270.354 200.31 271.046 202.746 271.036C204.118 271.03 205.376 270.787 206.519 270.306C207.662 269.797 208.648 269.065 209.479 268.11L211.178 270.034C210.21 271.214 208.987 272.116 207.509 272.738C206.059 273.36 204.452 273.675 202.689 273.682C200.421 273.692 198.4 273.224 196.626 272.279C194.88 271.307 193.509 269.969 192.512 268.265C191.515 266.561 191.005 264.631 190.984 262.475C190.962 260.319 191.405 258.385 192.312 256.674C193.246 254.962 194.521 253.626 196.135 252.668C197.778 251.709 199.621 251.225 201.665 251.216C203.709 251.208 205.548 251.676 207.181 252.621C208.815 253.566 210.102 254.891 211.043 256.595C211.984 258.271 212.466 260.201 212.488 262.385L212.455 263.309ZM201.691 253.778C199.563 253.787 197.778 254.481 196.336 255.859C194.921 257.209 194.127 258.976 193.953 261.161L209.618 261.095C209.401 258.912 208.557 257.152 207.087 255.814C205.646 254.448 203.847 253.769 201.691 253.778ZM221.346 255.628C222.031 254.141 223.056 253.017 224.42 252.255C225.812 251.493 227.531 251.108 229.575 251.099L229.604 253.997L228.889 253.958C226.565 253.968 224.752 254.69 223.451 256.123C222.149 257.556 221.511 259.561 221.537 262.137L221.65 273.392L218.668 273.405L218.446 251.314L221.302 251.302L221.346 255.628ZM241.285 273.52C239.493 273.528 237.769 273.283 236.112 272.786C234.482 272.261 233.202 271.608 232.27 270.828L233.59 268.47C234.522 269.194 235.69 269.792 237.094 270.262C238.499 270.704 239.957 270.922 241.469 270.915C243.485 270.907 244.966 270.593 245.912 269.973C246.885 269.325 247.366 268.427 247.355 267.279C247.347 266.467 247.074 265.838 246.538 265.392C246.001 264.918 245.326 264.571 244.511 264.351C243.697 264.102 242.616 263.868 241.27 263.65C239.475 263.322 238.029 262.992 236.934 262.66C235.838 262.301 234.894 261.703 234.102 260.866C233.338 260.029 232.948 258.869 232.933 257.385C232.915 255.537 233.669 254.022 235.198 252.84C236.726 251.657 238.862 251.06 241.606 251.049C243.034 251.043 244.464 251.233 245.896 251.619C247.327 251.977 248.508 252.462 249.438 253.074L248.16 255.473C246.328 254.221 244.151 253.6 241.631 253.611C239.727 253.619 238.289 253.961 237.316 254.637C236.37 255.313 235.903 256.197 235.914 257.289C235.923 258.129 236.195 258.799 236.732 259.301C237.297 259.803 237.987 260.178 238.802 260.427C239.616 260.647 240.738 260.88 242.169 261.126C243.936 261.455 245.354 261.785 246.421 262.117C247.488 262.448 248.404 263.018 249.168 263.827C249.932 264.636 250.322 265.754 250.336 267.182C250.355 269.114 249.559 270.657 247.946 271.812C246.362 272.939 244.141 273.508 241.285 273.52Z" fill="black"/>
<path d="M121.809 202.412L122.284 202.57L122.5 201.909L121.804 201.912L121.809 202.412ZM112.192 231.852L112.197 232.352L112.556 232.351L112.667 232.01L112.192 231.852ZM108.916 231.866L108.445 232.03L108.564 232.367L108.921 232.366L108.916 231.866ZM100.054 206.829L100.526 206.665L100.04 205.293L99.5801 206.668L100.054 206.829ZM91.654 231.938L91.659 232.438L92.0154 232.437L92.1283 232.099L91.654 231.938ZM88.42 231.952L87.9478 232.114L88.0659 232.453L88.425 232.452L88.42 231.952ZM78.2132 202.595L78.2081 202.095L77.5119 202.098L77.741 202.757L78.2132 202.595ZM81.4051 202.582L81.8776 202.421L81.7597 202.08L81.4001 202.082L81.4051 202.582ZM90.1427 227.829L89.6703 227.99L90.1502 229.376L90.6167 227.991L90.1427 227.829ZM98.667 202.509L98.662 202.009L98.3063 202.011L98.193 202.347L98.667 202.509ZM101.565 202.497L102.037 202.334L101.918 201.996L101.56 201.997L101.565 202.497ZM110.472 227.869L110 228.033L110.489 229.424L110.947 228.028L110.472 227.869ZM118.827 202.425L118.822 201.925L118.463 201.926L118.352 202.266L118.827 202.425ZM121.333 202.254L111.716 231.694L112.667 232.01L122.284 202.57L121.333 202.254ZM112.187 231.352L108.911 231.366L108.921 232.366L112.197 232.352L112.187 231.352ZM109.387 231.702L100.526 206.665L99.5831 206.994L108.445 232.03L109.387 231.702ZM99.5801 206.668L91.1797 231.777L92.1283 232.099L100.529 206.99L99.5801 206.668ZM91.649 231.438L88.415 231.452L88.425 232.452L91.659 232.438L91.649 231.438ZM88.8922 231.79L78.6854 202.433L77.741 202.757L87.9478 232.114L88.8922 231.79ZM78.2182 203.095L81.4102 203.082L81.4001 202.082L78.2081 202.095L78.2182 203.095ZM80.9327 202.743L89.6703 227.99L90.6151 227.668L81.8776 202.421L80.9327 202.743ZM90.6167 227.991L99.141 202.671L98.193 202.347L89.6687 227.667L90.6167 227.991ZM98.672 203.009L101.57 202.997L101.56 201.997L98.662 202.009L98.672 203.009ZM101.093 202.66L110 228.033L110.943 227.706L102.037 202.334L101.093 202.66ZM110.947 228.028L119.302 202.583L118.352 202.266L109.997 227.711L110.947 228.028ZM118.832 202.925L121.814 202.912L121.804 201.912L118.822 201.925L118.832 202.925ZM145.259 223.859L145.713 223.653L145.577 223.358L145.254 223.359L145.259 223.859ZM128.879 223.928L128.874 223.428L128.551 223.43L128.421 223.725L128.879 223.928ZM125.43 231.797L125.435 232.297L125.758 232.295L125.888 232L125.43 231.797ZM122.196 231.81L121.739 231.604L121.423 232.313L122.201 232.31L122.196 231.81ZM135.341 202.355L135.336 201.855L135.015 201.857L134.884 202.149L135.341 202.355ZM138.407 202.342L138.859 202.133L138.723 201.841L138.402 201.842L138.407 202.342ZM152.142 231.684L152.147 232.184L152.925 232.181L152.594 231.475L152.142 231.684ZM148.866 231.698L148.412 231.905L148.547 232.2L148.871 232.198L148.866 231.698ZM144.1 221.344L144.105 221.844L144.876 221.841L144.554 221.138L144.1 221.344ZM136.885 205.583L137.34 205.377L136.873 204.357L136.427 205.381L136.885 205.583ZM129.988 221.404L129.529 221.202L129.222 221.907L129.993 221.904L129.988 221.404ZM145.254 223.359L128.874 223.428L128.884 224.428L145.264 224.359L145.254 223.359ZM128.421 223.725L124.972 231.594L125.888 232L129.337 224.131L128.421 223.725ZM125.425 231.297L122.191 231.31L122.201 232.31L125.435 232.297L125.425 231.297ZM122.653 232.016L135.798 202.561L134.884 202.149L121.739 231.604L122.653 232.016ZM135.346 202.855L138.412 202.842L138.402 201.842L135.336 201.855L135.346 202.855ZM137.954 202.552L151.689 231.894L152.594 231.475L138.859 202.133L137.954 202.552ZM152.137 231.185L148.861 231.198L148.871 232.198L152.147 232.184L152.137 231.185ZM149.32 231.491L145.713 223.653L144.805 224.066L148.412 231.905L149.32 231.491ZM144.554 221.138L137.34 205.377L136.431 205.789L143.645 221.55L144.554 221.138ZM136.427 205.381L129.529 221.202L130.446 221.606L137.344 205.785L136.427 205.381ZM129.993 221.904L144.105 221.844L144.095 220.844L129.983 220.904L129.993 221.904ZM208.064 202.05L208.539 202.208L208.755 201.547L208.059 201.55L208.064 202.05ZM198.447 231.49L198.452 231.99L198.811 231.989L198.922 231.648L198.447 231.49ZM195.171 231.504L194.7 231.668L194.819 232.005L195.176 232.004L195.171 231.504ZM186.309 206.467L186.781 206.303L186.295 204.931L185.835 206.306L186.309 206.467ZM177.909 231.576L177.914 232.076L178.27 232.075L178.383 231.737L177.909 231.576ZM174.675 231.59L174.203 231.752L174.321 232.091L174.68 232.09L174.675 231.59ZM164.468 202.233L164.463 201.733L163.767 201.736L163.996 202.395L164.468 202.233ZM167.66 202.22L168.133 202.059L168.015 201.718L167.655 201.72L167.66 202.22ZM176.398 227.467L175.925 227.628L176.405 229.014L176.872 227.629L176.398 227.467ZM184.922 202.147L184.917 201.647L184.561 201.649L184.448 201.985L184.922 202.147ZM187.82 202.135L188.292 201.972L188.173 201.634L187.815 201.635L187.82 202.135ZM196.727 227.507L196.255 227.671L196.744 229.062L197.202 227.666L196.727 227.507ZM205.082 202.063L205.077 201.563L204.718 201.564L204.607 201.904L205.082 202.063ZM207.588 201.892L197.971 231.332L198.922 231.648L208.539 202.208L207.588 201.892ZM198.442 230.99L195.166 231.004L195.176 232.004L198.452 231.99L198.442 230.99ZM195.642 231.34L186.781 206.303L185.838 206.632L194.7 231.668L195.642 231.34ZM185.835 206.306L177.435 231.415L178.383 231.737L186.784 206.628L185.835 206.306ZM177.904 231.076L174.67 231.09L174.68 232.09L177.914 232.076L177.904 231.076ZM175.147 231.428L164.94 202.071L163.996 202.395L174.203 231.752L175.147 231.428ZM164.473 202.733L167.665 202.72L167.655 201.72L164.463 201.733L164.473 202.733ZM167.188 202.381L175.925 227.628L176.87 227.306L168.133 202.059L167.188 202.381ZM176.872 227.629L185.396 202.309L184.448 201.985L175.924 227.305L176.872 227.629ZM184.927 202.647L187.825 202.635L187.815 201.635L184.917 201.647L184.927 202.647ZM187.348 202.298L196.255 227.671L197.199 227.344L188.292 201.972L187.348 202.298ZM197.202 227.666L205.557 202.221L204.607 201.904L196.252 227.349L197.202 227.666ZM205.087 202.563L208.069 202.55L208.059 201.55L205.077 201.563L205.087 202.563ZM230.88 221.232L230.885 221.732L231.363 221.73L231.38 221.253L230.88 221.232ZM212.4 221.31L212.395 220.81L211.857 220.812L211.902 221.348L212.4 221.31ZM215.102 226.884L214.772 227.258L214.776 227.262L215.102 226.884ZM224.944 228.229L225.14 228.69L225.15 228.686L224.944 228.229ZM227.904 226.033L228.278 225.703L227.899 225.274L227.526 225.703L227.904 226.033ZM229.603 227.957L229.991 228.276L230.26 227.948L229.977 227.628L229.603 227.957ZM225.934 230.661L225.738 230.2L225.735 230.201L225.934 230.661ZM215.051 230.202L214.81 230.639L214.818 230.643L215.051 230.202ZM210.937 226.188L210.506 226.438L210.506 226.438L210.937 226.188ZM210.737 214.597L210.298 214.355L210.295 214.361L210.737 214.597ZM214.561 210.591L214.307 210.159L214.303 210.16L214.561 210.591ZM229.469 214.518L229.031 214.758L229.033 214.761L229.469 214.518ZM230.913 220.308L231.412 220.329L231.413 220.317L231.413 220.306L230.913 220.308ZM214.761 213.782L215.107 214.144L215.107 214.144L214.761 213.782ZM212.378 219.084L211.879 219.041L211.836 219.586L212.383 219.584L212.378 219.084ZM228.044 219.018L228.049 219.518L228.596 219.516L228.541 218.971L228.044 219.018ZM225.513 213.737L225.17 214.099L225.177 214.105L225.513 213.737ZM230.875 220.732L212.395 220.81L212.405 221.81L230.885 221.732L230.875 220.732ZM211.902 221.348C212.103 223.762 213.057 225.744 214.772 227.258L215.432 226.51C213.927 225.182 213.08 223.448 212.898 221.271L211.902 221.348ZM214.776 227.262C216.492 228.746 218.638 229.469 221.176 229.459L221.166 228.459C218.832 228.469 216.933 227.809 215.428 226.507L214.776 227.262ZM221.176 229.459C222.607 229.453 223.93 229.199 225.14 228.69L224.748 227.768C223.671 228.221 222.479 228.453 221.166 228.459L221.176 229.459ZM225.15 228.686C226.36 228.147 227.405 227.371 228.282 226.362L227.526 225.703C226.742 226.605 225.814 227.293 224.738 227.772L225.15 228.686ZM227.53 226.362L229.229 228.287L229.977 227.628L228.278 225.703L227.53 226.362ZM229.216 227.639C228.302 228.754 227.145 229.607 225.738 230.2L226.131 231.122C227.679 230.47 228.969 229.521 229.991 228.276L229.216 227.639ZM225.735 230.201C224.353 230.794 222.813 231.098 221.109 231.105L221.119 232.105C222.942 232.097 224.616 231.772 226.134 231.12L225.735 230.201ZM221.109 231.105C218.913 231.114 216.975 230.662 215.284 229.761L214.818 230.643C216.674 231.632 218.779 232.115 221.119 232.105L221.109 231.105ZM215.293 229.766C213.625 228.837 212.319 227.562 211.368 225.937L210.506 226.438C211.549 228.221 212.987 229.623 214.81 230.639L215.293 229.766ZM211.368 225.937C210.419 224.316 209.93 222.473 209.909 220.396L208.909 220.4C208.931 222.635 209.46 224.652 210.506 226.438L211.368 225.937ZM209.909 220.396C209.888 218.314 210.315 216.464 211.179 214.833L210.295 214.361C209.345 216.153 208.887 218.171 208.909 220.4L209.909 220.396ZM211.176 214.838C212.07 213.201 213.283 211.932 214.818 211.021L214.303 210.16C212.61 211.166 211.273 212.568 210.298 214.355L211.176 214.838ZM214.815 211.023C216.376 210.111 218.132 209.648 220.095 209.639L220.085 208.64C217.96 208.648 216.03 209.152 214.307 210.159L214.815 211.023ZM220.095 209.639C222.058 209.631 223.808 210.08 225.358 210.977L225.855 210.112C224.138 209.118 222.21 208.631 220.085 208.64L220.095 209.639ZM225.358 210.977C226.91 211.874 228.133 213.131 229.031 214.758L229.906 214.278C228.922 212.497 227.57 211.104 225.855 210.112L225.358 210.977ZM229.033 214.761C229.927 216.354 230.392 218.199 230.413 220.31L231.413 220.306C231.39 218.05 230.892 216.035 229.904 214.275L229.033 214.761ZM230.413 220.287L230.38 221.211L231.38 221.253L231.412 220.329L230.413 220.287ZM220.111 211.201C217.864 211.211 215.954 211.948 214.414 213.419L215.107 214.144C216.451 212.86 218.112 212.21 220.121 212.201L220.111 211.201ZM214.414 213.419C212.901 214.863 212.062 216.75 211.879 219.041L212.876 219.126C213.042 217.048 213.791 215.4 215.107 214.144L214.414 213.419ZM212.383 219.584L228.049 219.518L228.039 218.518L212.373 218.584L212.383 219.584ZM228.541 218.971C228.312 216.679 227.42 214.799 225.848 213.368L225.177 214.105C226.545 215.35 227.339 216.991 227.546 219.065L228.541 218.971ZM225.855 213.375C224.311 211.911 222.384 211.192 220.111 211.201L220.121 212.201C222.16 212.193 223.831 212.83 225.17 214.099L225.855 213.375ZM253.894 210.426L253.652 210.862L253.657 210.865L253.894 210.426ZM257.882 214.357L258.316 214.112L258.316 214.112L257.882 214.357ZM257.999 226.032L258.438 226.274L258.438 226.274L257.999 226.032ZM254.091 230.039L253.84 229.605L253.84 229.605L254.091 230.039ZM243.467 230.335L243.235 230.776L243.238 230.778L243.467 230.335ZM239.905 226.948L240.331 226.688L239.387 225.155L239.405 226.95L239.905 226.948ZM239.949 231.316L239.954 231.816L240.454 231.814L240.449 231.314L239.949 231.316ZM237.093 231.328L236.593 231.33L236.598 231.83L237.098 231.828L237.093 231.328ZM236.78 200.166L236.775 199.666L236.275 199.668L236.28 200.168L236.78 200.166ZM239.762 200.153L240.262 200.151L240.257 199.651L239.757 199.653L239.762 200.153ZM239.896 213.424L239.396 213.426L239.413 215.119L240.318 213.694L239.896 213.424ZM243.391 210.176L243.623 210.62L243.626 210.618L243.391 210.176ZM252.43 227.778L252.677 228.214L252.684 228.209L252.43 227.778ZM255.339 224.699L254.899 224.459L254.895 224.466L255.339 224.699ZM255.249 215.712L254.81 215.949L254.814 215.956L255.249 215.712ZM252.279 212.7L252.033 213.134L252.04 213.138L252.279 212.7ZM243.837 212.736L244.088 213.169L244.091 213.168L243.837 212.736ZM240.927 215.772L240.487 215.532L240.483 215.539L240.927 215.772ZM241.017 224.76L240.578 224.996L240.582 225.003L241.017 224.76ZM243.988 227.813L243.738 228.245L243.75 228.251L243.988 227.813ZM248.257 209.521C250.249 209.513 252.043 209.962 253.652 210.862L254.136 209.99C252.365 208.999 250.399 208.512 248.247 208.521L248.257 209.521ZM253.657 210.865C255.262 211.736 256.524 212.978 257.447 214.602L258.316 214.112C257.301 212.328 255.904 210.949 254.131 209.986L253.657 210.865ZM257.447 214.602C258.369 216.223 258.847 218.082 258.868 220.191L259.868 220.186C259.845 217.928 259.332 215.898 258.316 214.112L257.447 214.602ZM258.868 220.191C258.889 222.299 258.449 224.162 257.559 225.791L258.438 226.274C259.418 224.479 259.891 222.445 259.868 220.186L258.868 220.191ZM257.559 225.791C256.668 227.423 255.43 228.692 253.84 229.605L254.342 230.473C256.092 229.467 257.46 228.065 258.438 226.274L257.559 225.791ZM253.84 229.605C252.25 230.518 250.464 230.982 248.472 230.99L248.482 231.99C250.634 231.981 252.591 231.478 254.342 230.473L253.84 229.605ZM248.472 230.99C246.697 230.998 245.109 230.628 243.696 229.892L243.238 230.778C244.81 231.597 246.561 231.998 248.482 231.99L248.472 230.99ZM243.7 229.894C242.319 229.16 241.197 228.096 240.331 226.688L239.48 227.208C240.435 228.761 241.688 229.954 243.235 230.776L243.7 229.894ZM239.405 226.95L239.449 231.318L240.449 231.314L240.405 226.946L239.405 226.95ZM239.944 230.816L237.088 230.828L237.098 231.828L239.954 231.816L239.944 230.816ZM237.593 231.326L237.28 200.163L236.28 200.168L236.593 231.33L237.593 231.326ZM236.785 200.665L239.767 200.653L239.757 199.653L236.775 199.666L236.785 200.665ZM239.262 200.155L239.396 213.426L240.396 213.422L240.262 200.151L239.262 200.155ZM240.318 213.694C241.184 212.332 242.285 211.311 243.623 210.62L243.16 209.731C241.656 210.508 240.427 211.653 239.473 213.154L240.318 213.694ZM243.626 210.618C244.997 209.897 246.537 209.528 248.257 209.521L248.247 208.521C246.382 208.529 244.682 208.93 243.156 209.733L243.626 210.618ZM248.246 229.345C249.865 229.338 251.345 228.963 252.677 228.214L252.183 227.342C251.009 228.002 249.697 228.339 248.236 228.345L248.246 229.345ZM252.684 228.209C254.02 227.428 255.054 226.332 255.783 224.932L254.895 224.466C254.251 225.705 253.346 226.661 252.176 227.346L252.684 228.209ZM255.779 224.94C256.539 223.538 256.904 221.953 256.886 220.199L255.886 220.203C255.902 221.809 255.569 223.223 254.899 224.459L255.779 224.94ZM256.886 220.199C256.869 218.444 256.472 216.863 255.684 215.468L254.814 215.956C255.509 217.186 255.87 218.598 255.886 220.203L256.886 220.199ZM255.688 215.475C254.93 214.08 253.872 213.005 252.517 212.262L252.04 213.138C253.22 213.785 254.141 214.717 254.81 215.949L255.688 215.475ZM252.525 212.266C251.176 211.498 249.685 211.119 248.063 211.126L248.073 212.126C249.53 212.12 250.847 212.458 252.033 213.134L252.525 212.266ZM248.063 211.126C246.414 211.133 244.916 211.523 243.582 212.304L244.091 213.168C245.263 212.482 246.586 212.132 248.073 212.126L248.063 211.126ZM243.585 212.302C242.276 213.056 241.243 214.137 240.487 215.532L241.367 216.012C242.041 214.769 242.948 213.826 244.088 213.169L243.585 212.302ZM240.483 215.539C239.754 216.939 239.405 218.521 239.422 220.272L240.422 220.268C240.406 218.659 240.726 217.243 241.371 216.005L240.483 215.539ZM239.422 220.272C239.44 222.024 239.821 223.602 240.578 224.996L241.456 224.523C240.787 223.291 240.438 221.877 240.422 220.268L239.422 220.272ZM240.582 225.003C241.365 226.39 242.418 227.474 243.738 228.245L244.238 227.382C243.08 226.706 242.152 225.755 241.452 224.516L240.582 225.003ZM243.75 228.251C245.098 228.99 246.6 229.352 248.246 229.345L248.236 228.345C246.745 228.351 245.412 228.025 244.227 227.375L243.75 228.251ZM122.471 244.409L122.971 244.407L122.966 243.907L122.466 243.909L122.471 244.409ZM122.766 273.807L122.771 274.307L123.271 274.305L123.266 273.805L122.766 273.807ZM119.784 273.82L119.284 273.822L119.289 274.322L119.789 274.32L119.784 273.82ZM119.548 250.301L120.048 250.299L120.03 248.451L119.114 250.051L119.548 250.301ZM108.197 270.131L108.202 270.631L108.489 270.629L108.631 270.381L108.197 270.131ZM106.727 270.137L106.298 270.392L106.446 270.638L106.732 270.637L106.727 270.137ZM94.9799 250.53L95.4085 250.275L94.4615 248.695L94.4799 250.532L94.9799 250.53ZM95.2146 273.923L95.2196 274.423L95.7196 274.421L95.7146 273.921L95.2146 273.923ZM92.2326 273.936L91.7326 273.938L91.7377 274.438L92.2377 274.436L92.2326 273.936ZM91.9377 244.537L91.9327 244.037L91.4327 244.039L91.4377 244.539L91.9377 244.537ZM94.4997 244.526L94.9286 244.272L94.7813 244.025L94.4947 244.026L94.4997 244.526ZM107.486 266.27L107.057 266.524L107.498 267.263L107.921 266.519L107.486 266.27ZM119.909 244.42L119.904 243.92L119.616 243.921L119.474 244.171L119.909 244.42ZM121.971 244.411L122.266 273.81L123.266 273.805L122.971 244.407L121.971 244.411ZM122.761 273.307L119.779 273.32L119.789 274.32L122.771 274.307L122.761 273.307ZM120.284 273.818L120.048 250.299L119.048 250.303L119.284 273.822L120.284 273.818ZM119.114 250.051L107.763 269.88L108.631 270.381L119.983 250.551L119.114 250.051ZM108.192 269.631L106.722 269.637L106.732 270.637L108.202 270.631L108.192 269.631ZM107.156 269.882L95.4085 250.275L94.5514 250.785L106.298 270.392L107.156 269.882ZM94.4799 250.532L94.7146 273.925L95.7146 273.921L95.4799 250.528L94.4799 250.532ZM95.2096 273.423L92.2276 273.436L92.2377 274.436L95.2196 274.423L95.2096 273.423ZM92.7326 273.934L92.4377 244.535L91.4377 244.539L91.7326 273.938L92.7326 273.934ZM91.9427 245.037L94.5047 245.026L94.4947 244.026L91.9327 244.037L91.9427 245.037ZM94.0708 244.781L107.057 266.524L107.915 266.015L94.9286 244.272L94.0708 244.781ZM107.921 266.519L120.344 244.669L119.474 244.171L107.051 266.021L107.921 266.519ZM119.914 244.92L122.476 244.909L122.466 243.909L119.904 243.92L119.914 244.92ZM145.878 253.635L145.538 253.999L145.542 254.003L145.878 253.635ZM148.389 273.7L148.394 274.2L148.894 274.198L148.889 273.698L148.389 273.7ZM145.533 273.712L145.033 273.714L145.038 274.214L145.538 274.212L145.533 273.712ZM145.499 270.268L145.999 270.266L145.98 268.422L145.065 270.017L145.499 270.268ZM142.544 272.968L142.32 272.52L142.316 272.522L142.544 272.968ZM132.036 272.215L132.346 271.824L132.036 272.215ZM131.776 263.018L131.451 262.636L131.447 262.639L131.776 263.018ZM145.282 261.239L145.287 261.739L145.787 261.737L145.782 261.237L145.282 261.239ZM143.629 255.576L143.289 255.94L143.294 255.945L143.629 255.576ZM134.928 254.815L135.097 255.286L135.106 255.283L134.928 254.815ZM131.629 256.718L131.203 256.979L131.517 257.489L131.962 257.093L131.629 256.718ZM130.262 254.498L129.935 254.119L129.613 254.395L129.837 254.758L130.262 254.498ZM134.272 252.297L134.43 252.773L134.438 252.77L134.272 252.297ZM142.687 270.448L142.957 270.87L142.964 270.866L142.687 270.448ZM145.341 267.077L145.806 267.262L145.842 267.172L145.841 267.075L145.341 267.077ZM145.305 263.465L145.805 263.463L145.8 262.963L145.3 262.965L145.305 263.465ZM134.245 270.525L133.944 270.923L133.951 270.928L134.245 270.525ZM139.225 251.979C142.028 251.967 144.107 252.665 145.538 253.999L146.218 253.27C144.54 251.706 142.18 250.966 139.215 250.979L139.225 251.979ZM145.542 254.003C146.961 255.301 147.725 257.272 147.752 260.011L148.752 260.006C148.723 257.09 147.904 254.812 146.214 253.267L145.542 254.003ZM147.752 260.011L147.889 273.702L148.889 273.698L148.752 260.006L147.752 260.011ZM148.384 273.2L145.528 273.212L145.538 274.212L148.394 274.2L148.384 273.2ZM146.033 273.71L145.999 270.266L144.999 270.27L145.033 273.714L146.033 273.71ZM145.065 270.017C144.458 271.074 143.55 271.91 142.32 272.52L142.768 273.417C144.156 272.728 145.219 271.763 145.933 270.519L145.065 270.017ZM142.316 272.522C141.118 273.129 139.662 273.447 137.929 273.454L137.939 274.454C139.79 274.446 141.407 274.107 142.772 273.415L142.316 272.522ZM137.929 273.454C135.543 273.464 133.699 272.903 132.346 271.824L131.726 272.605C133.308 273.866 135.397 274.464 137.939 274.454L137.929 273.454ZM132.346 271.824C131.001 270.752 130.323 269.346 130.305 267.56L129.305 267.564C129.326 269.641 130.135 271.337 131.726 272.605L132.346 271.824ZM130.305 267.56C130.288 265.82 130.89 264.448 132.104 263.397L131.447 262.639C129.997 263.894 129.285 265.552 129.305 267.564L130.305 267.56ZM132.1 263.4C133.329 262.358 135.351 261.781 138.273 261.768L138.263 260.769C135.25 260.781 132.943 261.37 131.451 262.636L132.1 263.4ZM138.273 261.768L145.287 261.739L145.277 260.739L138.263 260.769L138.273 261.768ZM145.782 261.237L145.769 259.893L144.769 259.897L144.782 261.241L145.782 261.237ZM145.769 259.893C145.749 257.896 145.172 256.304 143.964 255.207L143.294 255.945C144.234 256.799 144.751 258.087 144.769 259.897L145.769 259.893ZM143.97 255.212C142.77 254.091 141.068 253.575 138.947 253.584L138.957 254.584C140.924 254.575 142.34 255.054 143.289 255.94L143.97 255.212ZM138.947 253.584C137.489 253.59 136.089 253.844 134.749 254.346L135.106 255.283C136.332 254.823 137.615 254.589 138.957 254.584L138.947 253.584ZM134.759 254.343C133.421 254.816 132.264 255.481 131.295 256.344L131.962 257.093C132.825 256.324 133.867 255.72 135.097 255.286L134.759 254.343ZM132.054 256.458L130.688 254.238L129.837 254.758L131.203 256.979L132.054 256.458ZM130.59 254.878C131.645 253.969 132.922 253.265 134.43 252.773L134.114 251.822C132.497 252.35 131.1 253.114 129.935 254.119L130.59 254.878ZM134.438 252.77C135.946 252.25 137.541 251.986 139.225 251.979L139.215 250.979C137.427 250.986 135.724 251.267 134.107 251.825L134.438 252.77ZM138.377 272.1C140.134 272.093 141.668 271.69 142.957 270.87L142.416 270.026C141.313 270.728 139.97 271.093 138.367 271.1L138.377 272.1ZM142.964 270.866C144.253 270.015 145.199 268.806 145.806 267.262L144.875 266.891C144.336 268.264 143.512 269.303 142.41 270.03L142.964 270.866ZM145.841 267.075L145.805 263.463L144.805 263.467L144.841 267.079L145.841 267.075ZM145.3 262.965L138.37 262.994L138.38 263.994L145.31 263.965L145.3 262.965ZM138.37 262.994C136.437 263.002 134.902 263.342 133.842 264.09C132.75 264.86 132.23 266.015 132.244 267.468L133.244 267.464C133.233 266.284 133.638 265.461 134.422 264.908C135.239 264.332 136.532 264.002 138.38 263.994L138.37 262.994ZM132.244 267.468C132.259 268.903 132.827 270.072 133.944 270.922L134.547 270.128C133.688 269.475 133.256 268.604 133.244 267.464L132.244 267.468ZM133.951 270.928C135.056 271.738 136.552 272.108 138.377 272.1L138.367 271.1C136.664 271.107 135.409 270.76 134.539 270.123L133.951 270.928ZM157.239 273.117L157.088 273.593L157.098 273.596L157.239 273.117ZM153.398 271.159L152.961 270.913L152.758 271.274L153.078 271.541L153.398 271.159ZM154.718 268.801L155.023 268.407L154.564 268.05L154.281 268.555L154.718 268.801ZM158.222 270.593L158.066 271.067L158.074 271.069L158.222 270.593ZM167.039 270.304L167.315 270.722L167.318 270.72L167.039 270.304ZM167.665 265.723L167.336 266.097L167.341 266.102L167.347 266.107L167.665 265.723ZM165.639 264.682L165.496 265.16L165.503 265.162L165.511 265.164L165.639 264.682ZM162.398 263.981L162.311 264.473L162.321 264.475L162.398 263.981ZM158.062 262.991L157.908 263.467L157.92 263.47L158.062 262.991ZM155.23 261.197L154.861 261.533L154.868 261.54L155.23 261.197ZM156.325 253.171L156.018 252.775L156.018 252.775L156.325 253.171ZM167.023 251.95L166.896 252.433L166.905 252.435L167.023 251.95ZM170.566 253.405L171.008 253.642L171.222 253.24L170.839 252.988L170.566 253.405ZM169.288 255.804L169.008 256.217L169.469 256.532L169.73 256.041L169.288 255.804ZM158.443 254.968L158.156 254.557L158.151 254.561L158.443 254.968ZM157.86 259.632L157.52 259.997L157.529 260.005L157.86 259.632ZM159.929 260.758L159.786 261.236L159.794 261.238L159.801 261.24L159.929 260.758ZM163.297 261.457L163.385 260.966L163.378 260.965L163.297 261.457ZM167.549 262.448L167.403 262.925L167.403 262.925L167.549 262.448ZM170.296 264.158L169.933 264.5L169.933 264.5L170.296 264.158ZM169.074 272.143L169.365 272.551L169.367 272.55L169.074 272.143ZM162.408 273.351C160.663 273.358 158.988 273.12 157.38 272.638L157.098 273.596C158.804 274.107 160.578 274.359 162.418 274.351L162.408 273.351ZM157.39 272.641C155.799 272.128 154.583 271.501 153.717 270.776L153.078 271.541C154.075 272.377 155.421 273.055 157.088 273.593L157.39 272.641ZM153.834 271.405L155.155 269.048L154.281 268.555L152.961 270.913L153.834 271.405ZM154.412 269.195C155.398 269.962 156.62 270.583 158.066 271.067L158.378 270.119C157.014 269.662 155.9 269.089 155.023 268.407L154.412 269.195ZM158.074 271.069C159.53 271.528 161.04 271.753 162.602 271.746L162.592 270.746C161.13 270.752 159.723 270.542 158.37 270.116L158.074 271.069ZM162.602 271.746C164.649 271.738 166.248 271.422 167.315 270.722L166.764 269.885C165.939 270.425 164.577 270.738 162.592 270.746L162.602 271.746ZM167.318 270.72C168.428 269.982 168.996 268.928 168.982 267.608L167.982 267.612C167.992 268.587 167.598 269.33 166.761 269.887L167.318 270.72ZM168.982 267.608C168.973 266.676 168.654 265.896 167.984 265.339L167.347 266.107C167.75 266.442 167.975 266.92 167.982 267.612L168.982 267.608ZM167.995 265.349C167.391 264.816 166.643 264.436 165.767 264.199L165.511 265.164C166.264 265.368 166.867 265.683 167.336 266.097L167.995 265.349ZM165.782 264.203C164.937 263.946 163.832 263.708 162.475 263.488L162.321 264.475C163.656 264.691 164.712 264.92 165.496 265.16L165.782 264.203ZM162.485 263.489C160.699 263.163 159.274 262.837 158.204 262.513L157.92 263.47C159.04 263.809 160.506 264.143 162.311 264.473L162.485 263.489ZM158.215 262.516C157.199 262.183 156.327 261.63 155.592 260.855L154.868 261.54C155.718 262.438 156.733 263.081 157.908 263.466L158.215 262.516ZM155.598 260.861C154.94 260.142 154.575 259.114 154.561 257.714L153.561 257.718C153.576 259.286 153.99 260.579 154.861 261.533L155.598 260.861ZM154.561 257.714C154.544 256.031 155.22 254.66 156.633 253.567L156.018 252.775C154.374 254.047 153.541 255.706 153.561 257.718L154.561 257.714ZM156.633 253.567C158.045 252.474 160.06 251.891 162.738 251.88L162.728 250.88C159.919 250.892 157.662 251.503 156.018 252.775L156.633 253.567ZM162.738 251.88C164.12 251.874 165.505 252.058 166.896 252.433L167.151 251.467C165.677 251.07 164.203 250.874 162.728 250.88L162.738 251.88ZM166.905 252.435C168.298 252.783 169.423 253.25 170.293 253.822L170.839 252.988C169.849 252.336 168.612 251.832 167.142 251.465L166.905 252.435ZM170.124 253.168L168.846 255.567L169.73 256.041L171.008 253.642L170.124 253.168ZM169.569 255.392C167.64 254.074 165.361 253.431 162.754 253.442L162.764 254.442C165.197 254.432 167.27 255.03 169.008 256.217L169.569 255.392ZM162.754 253.442C160.805 253.45 159.248 253.798 158.156 254.557L158.73 255.379C159.585 254.785 160.905 254.45 162.764 254.442L162.754 253.442ZM158.151 254.561C157.084 255.323 156.529 256.355 156.542 257.622L157.542 257.618C157.533 256.701 157.912 255.964 158.736 255.375L158.151 254.561ZM156.542 257.622C156.551 258.577 156.867 259.387 157.52 259.997L158.2 259.268C157.779 258.874 157.549 258.342 157.542 257.618L156.542 257.622ZM157.529 260.005C158.155 260.561 158.911 260.969 159.786 261.236L160.073 260.279C159.319 260.049 158.695 259.707 158.191 259.259L157.529 260.005ZM159.801 261.24C160.638 261.467 161.778 261.703 163.215 261.95L163.378 260.965C161.954 260.72 160.85 260.49 160.058 260.275L159.801 261.24ZM163.208 261.949C164.966 262.276 166.362 262.602 167.403 262.925L167.694 261.97C166.601 261.63 165.162 261.296 163.385 260.966L163.208 261.949ZM167.403 262.925C168.388 263.231 169.229 263.755 169.933 264.5L170.658 263.816C169.834 262.944 168.844 262.327 167.694 261.97L167.403 262.925ZM169.933 264.5C170.588 265.193 170.95 266.176 170.964 267.515L171.964 267.511C171.948 265.994 171.532 264.741 170.658 263.816L169.933 264.5ZM170.964 267.515C170.981 269.279 170.267 270.672 168.781 271.736L169.367 272.55C171.106 271.304 171.985 269.611 171.964 267.511L170.964 267.515ZM168.783 271.735C167.312 272.781 165.206 273.339 162.408 273.351L162.418 274.351C165.331 274.339 167.666 273.759 169.365 272.551L168.783 271.735ZM188.658 272.187L188.996 272.557L189.274 272.303L189.105 271.965L188.658 272.187ZM186.57 273.372L186.723 273.849L186.733 273.845L186.57 273.372ZM179.207 272.101L178.857 272.456L178.857 272.456L179.207 272.101ZM177.345 254.007L177.845 254.004L177.84 253.504L177.34 253.507L177.345 254.007ZM173.397 254.023L172.897 254.025L172.902 254.525L173.402 254.523L173.397 254.023ZM173.372 251.503L173.367 251.003L172.867 251.005L172.872 251.505L173.372 251.503ZM177.32 251.487L177.325 251.987L177.825 251.985L177.82 251.485L177.32 251.487ZM177.271 246.657L177.266 246.157L176.766 246.159L176.771 246.659L177.271 246.657ZM180.253 246.644L180.753 246.642L180.748 246.142L180.248 246.144L180.253 246.644ZM180.302 251.474L179.802 251.476L179.807 251.976L180.307 251.974L180.302 251.474ZM187.022 251.446L187.522 251.444L187.517 250.944L187.017 250.946L187.022 251.446ZM187.047 253.966L187.052 254.466L187.552 254.464L187.547 253.964L187.047 253.966ZM180.327 253.994L180.322 253.494L179.822 253.496L179.827 253.996L180.327 253.994ZM181.456 270.201L181.091 270.541L181.098 270.549L181.106 270.556L181.456 270.201ZM186.083 270.896L185.92 270.422L185.913 270.425L186.083 270.896ZM187.586 270.049L188.033 269.827L187.741 269.246L187.255 269.673L187.586 270.049ZM188.32 271.817C187.823 272.269 187.19 272.633 186.407 272.898L186.733 273.845C187.623 273.544 188.382 273.117 188.996 272.557L188.32 271.817ZM186.417 272.895C185.658 273.134 184.855 273.257 184.006 273.26L184.016 274.26C184.96 274.256 185.863 274.12 186.723 273.849L186.417 272.895ZM184.006 273.26C182.025 273.269 180.567 272.741 179.557 271.746L178.857 272.456C180.109 273.69 181.854 274.269 184.016 274.26L184.006 273.26ZM179.557 271.746C178.545 270.749 177.999 269.311 177.979 267.36L176.979 267.364C177.001 269.5 177.605 271.222 178.857 272.456L179.557 271.746ZM177.979 267.36L177.845 254.004L176.845 254.009L176.979 267.364L177.979 267.36ZM177.34 253.507L173.392 253.523L173.402 254.523L177.35 254.507L177.34 253.507ZM173.897 254.021L173.872 251.501L172.872 251.505L172.897 254.025L173.897 254.021ZM173.377 252.003L177.325 251.987L177.315 250.987L173.367 251.003L173.377 252.003ZM177.82 251.485L177.771 246.655L176.771 246.659L176.82 251.489L177.82 251.485ZM177.276 247.157L180.258 247.144L180.248 246.144L177.266 246.157L177.276 247.157ZM179.753 246.646L179.802 251.476L180.802 251.472L180.753 246.642L179.753 246.646ZM180.307 251.974L187.027 251.946L187.017 250.946L180.297 250.974L180.307 251.974ZM186.522 251.448L186.547 253.968L187.547 253.964L187.522 251.444L186.522 251.448ZM187.042 253.466L180.322 253.494L180.332 254.494L187.052 254.466L187.042 253.466ZM179.827 253.996L179.959 267.183L180.959 267.179L180.827 253.992L179.827 253.996ZM179.959 267.183C179.973 268.576 180.326 269.722 181.091 270.541L181.82 269.861C181.283 269.286 180.972 268.418 180.959 267.179L179.959 267.183ZM181.106 270.556C181.905 271.344 183.003 271.703 184.327 271.697L184.317 270.697C183.176 270.702 182.364 270.397 181.806 269.846L181.106 270.556ZM184.327 271.697C184.997 271.694 185.64 271.585 186.253 271.367L185.913 270.425C185.41 270.603 184.879 270.695 184.317 270.697L184.327 271.697ZM186.246 271.369C186.887 271.152 187.447 270.839 187.918 270.426L187.255 269.673C186.893 269.991 186.451 270.242 185.92 270.422L186.246 271.369ZM187.14 270.271L188.211 272.409L189.105 271.965L188.033 269.827L187.14 270.271ZM212.455 263.309L212.46 263.809L212.938 263.807L212.954 263.33L212.455 263.309ZM193.975 263.387L193.97 262.887L193.432 262.889L193.477 263.425L193.975 263.387ZM196.677 268.961L196.347 269.335L196.351 269.339L196.677 268.961ZM206.519 270.306L206.715 270.767L206.724 270.763L206.519 270.306ZM209.479 268.11L209.853 267.78L209.474 267.351L209.101 267.78L209.479 268.11ZM211.178 270.034L211.566 270.353L211.835 270.025L211.552 269.705L211.178 270.034ZM207.509 272.738L207.313 272.277L207.31 272.278L207.509 272.738ZM196.626 272.279L196.385 272.716L196.393 272.72L196.626 272.279ZM192.512 268.265L192.081 268.515L192.081 268.515L192.512 268.265ZM192.312 256.674L191.872 256.432L191.869 256.438L192.312 256.674ZM196.135 252.668L195.881 252.236L195.878 252.237L196.135 252.668ZM211.043 256.595L210.606 256.835L210.608 256.838L211.043 256.595ZM212.488 262.385L212.987 262.406L212.988 262.394L212.988 262.383L212.488 262.385ZM196.336 255.859L196.682 256.221L196.682 256.221L196.336 255.859ZM193.953 261.161L193.454 261.118L193.411 261.663L193.958 261.661L193.953 261.161ZM209.618 261.095L209.623 261.595L210.17 261.593L210.116 261.048L209.618 261.095ZM207.087 255.814L206.745 256.176L206.752 256.182L207.087 255.814ZM212.45 262.809L193.97 262.887L193.98 263.887L212.46 263.809L212.45 262.809ZM193.477 263.425C193.678 265.839 194.632 267.821 196.347 269.335L197.007 268.587C195.501 267.259 194.654 265.525 194.473 263.348L193.477 263.425ZM196.351 269.339C198.067 270.823 200.213 271.546 202.751 271.536L202.741 270.536C200.407 270.546 198.507 269.886 197.003 268.584L196.351 269.339ZM202.751 271.536C204.182 271.53 205.505 271.276 206.715 270.767L206.323 269.845C205.246 270.298 204.054 270.53 202.741 270.536L202.751 271.536ZM206.724 270.763C207.934 270.224 208.98 269.448 209.857 268.439L209.101 267.78C208.317 268.682 207.389 269.37 206.313 269.849L206.724 270.763ZM209.105 268.439L210.804 270.364L211.552 269.705L209.853 267.78L209.105 268.439ZM210.791 269.716C209.876 270.831 208.72 271.684 207.313 272.277L207.706 273.199C209.254 272.547 210.544 271.598 211.566 270.353L210.791 269.716ZM207.31 272.278C205.928 272.871 204.388 273.175 202.683 273.182L202.694 274.182C204.517 274.174 206.191 273.849 207.709 273.197L207.31 272.278ZM202.683 273.182C200.487 273.191 198.55 272.739 196.859 271.838L196.393 272.72C198.249 273.709 200.354 274.192 202.694 274.182L202.683 273.182ZM196.868 271.843C195.2 270.914 193.894 269.639 192.943 268.014L192.081 268.515C193.124 270.298 194.561 271.7 196.385 272.716L196.868 271.843ZM192.943 268.014C191.994 266.393 191.505 264.55 191.484 262.473L190.484 262.477C190.506 264.712 191.035 266.729 192.081 268.515L192.943 268.014ZM191.484 262.473C191.463 260.391 191.89 258.54 192.754 256.91L191.869 256.438C190.92 258.23 190.461 260.248 190.484 262.477L191.484 262.473ZM192.751 256.915C193.645 255.278 194.858 254.009 196.393 253.098L195.878 252.237C194.184 253.243 192.848 254.645 191.872 256.432L192.751 256.915ZM196.389 253.1C197.951 252.188 199.707 251.725 201.67 251.716L201.66 250.717C199.535 250.725 197.605 251.229 195.881 252.236L196.389 253.1ZM201.67 251.716C203.633 251.708 205.383 252.157 206.933 253.054L207.43 252.189C205.713 251.195 203.785 250.708 201.66 250.717L201.67 251.716ZM206.933 253.054C208.485 253.951 209.708 255.208 210.606 256.835L211.481 256.355C210.497 254.574 209.145 253.181 207.43 252.189L206.933 253.054ZM210.608 256.838C211.502 258.431 211.966 260.276 211.988 262.387L212.988 262.383C212.965 260.127 212.467 258.112 211.479 256.352L210.608 256.838ZM211.988 262.364L211.955 263.288L212.954 263.33L212.987 262.406L211.988 262.364ZM201.686 253.278C199.439 253.288 197.529 254.025 195.989 255.496L196.682 256.221C198.026 254.937 199.686 254.287 201.696 254.278L201.686 253.278ZM195.989 255.496C194.476 256.94 193.637 258.827 193.454 261.118L194.451 261.203C194.617 259.125 195.366 257.477 196.682 256.221L195.989 255.496ZM193.958 261.661L209.623 261.595L209.613 260.595L193.948 260.661L193.958 261.661ZM210.116 261.048C209.887 258.756 208.994 256.876 207.423 255.445L206.752 256.182C208.119 257.427 208.914 259.068 209.121 261.142L210.116 261.048ZM207.43 255.452C205.886 253.988 203.958 253.269 201.686 253.278L201.696 254.278C203.735 254.27 205.406 254.907 206.745 256.176L207.43 255.452ZM221.346 255.628L220.846 255.63L221.8 255.839L221.346 255.628ZM224.42 252.255L224.178 251.816L224.174 251.818L224.42 252.255ZM229.575 251.099L230.075 251.097L230.069 250.597L229.57 250.599L229.575 251.099ZM229.604 253.997L229.579 254.496L230.109 254.525L230.104 253.995L229.604 253.997ZM228.889 253.958L228.914 253.459L228.899 253.458L228.884 253.458L228.889 253.958ZM223.451 256.123L223.822 256.46L223.822 256.46L223.451 256.123ZM221.65 273.392L221.655 273.892L222.155 273.89L222.15 273.39L221.65 273.392ZM218.668 273.405L218.168 273.407L218.173 273.907L218.673 273.905L218.668 273.405ZM218.446 251.314L218.441 250.814L217.941 250.816L217.946 251.316L218.446 251.314ZM221.302 251.302L221.802 251.3L221.797 250.8L221.297 250.802L221.302 251.302ZM221.8 255.839C222.443 254.443 223.397 253.4 224.666 252.692L224.174 251.818C222.714 252.634 221.618 253.839 220.891 255.416L221.8 255.839ZM224.662 252.694C225.964 251.981 227.596 251.608 229.58 251.599L229.57 250.599C227.466 250.608 225.661 251.005 224.178 251.816L224.662 252.694ZM229.075 251.101L229.104 253.999L230.104 253.995L230.075 251.097L229.075 251.101ZM229.628 253.498L228.914 253.459L228.865 254.457L229.579 254.496L229.628 253.498ZM228.884 253.458C226.45 253.468 224.493 254.229 223.08 255.786L223.822 256.46C225.012 255.15 226.68 254.467 228.894 254.458L228.884 253.458ZM223.08 255.786C221.669 257.339 221.01 259.48 221.037 262.139L222.037 262.135C222.012 259.643 222.629 257.774 223.822 256.46L223.08 255.786ZM221.037 262.139L221.15 273.395L222.15 273.39L222.037 262.135L221.037 262.139ZM221.645 272.892L218.663 272.905L218.673 273.905L221.655 273.892L221.645 272.892ZM219.168 273.403L218.946 251.312L217.946 251.316L218.168 273.407L219.168 273.403ZM218.451 251.814L221.307 251.802L221.297 250.802L218.441 250.814L218.451 251.814ZM220.802 251.304L220.846 255.63L221.846 255.626L221.802 251.3L220.802 251.304ZM236.112 272.786L235.961 273.262L235.971 273.265L236.112 272.786ZM232.27 270.828L231.833 270.582L231.631 270.943L231.95 271.21L232.27 270.828ZM233.59 268.47L233.896 268.076L233.436 267.719L233.154 268.224L233.59 268.47ZM237.094 270.262L236.938 270.736L236.947 270.738L237.094 270.262ZM245.912 269.973L246.188 270.391L246.191 270.389L245.912 269.973ZM246.538 265.392L246.208 265.766L246.214 265.771L246.22 265.776L246.538 265.392ZM244.511 264.351L244.368 264.829L244.376 264.831L244.383 264.833L244.511 264.351ZM241.27 263.65L241.183 264.142L241.193 264.144L241.27 263.65ZM236.934 262.66L236.781 263.135L236.792 263.139L236.934 262.66ZM234.102 260.866L233.734 261.202L233.74 261.209L234.102 260.866ZM235.198 252.84L234.89 252.444L234.89 252.444L235.198 252.84ZM245.896 251.619L245.768 252.102L245.777 252.104L245.896 251.619ZM249.438 253.074L249.88 253.311L250.094 252.909L249.712 252.657L249.438 253.074ZM248.16 255.473L247.88 255.886L248.341 256.201L248.602 255.71L248.16 255.473ZM237.316 254.637L237.029 254.226L237.023 254.23L237.316 254.637ZM236.732 259.301L236.392 259.666L236.402 259.674L236.732 259.301ZM238.802 260.427L238.658 260.905L238.666 260.907L238.674 260.909L238.802 260.427ZM242.169 261.126L242.258 260.635L242.251 260.634L242.169 261.126ZM246.421 262.117L246.275 262.594L246.275 262.594L246.421 262.117ZM249.168 263.827L248.806 264.169L248.806 264.169L249.168 263.827ZM247.946 271.812L248.238 272.22L248.239 272.219L247.946 271.812ZM241.28 273.02C239.536 273.027 237.861 272.789 236.253 272.307L235.971 273.265C237.677 273.776 239.451 274.028 241.29 274.02L241.28 273.02ZM236.263 272.31C234.671 271.797 233.456 271.17 232.59 270.445L231.95 271.21C232.948 272.046 234.293 272.724 235.961 273.262L236.263 272.31ZM232.706 271.074L234.027 268.717L233.154 268.224L231.833 270.582L232.706 271.074ZM233.285 268.864C234.271 269.631 235.493 270.252 236.938 270.736L237.251 269.788C235.886 269.331 234.772 268.758 233.896 268.076L233.285 268.864ZM236.947 270.738C238.402 271.197 239.912 271.422 241.474 271.415L241.464 270.415C240.002 270.421 238.596 270.211 237.242 269.785L236.947 270.738ZM241.474 271.415C243.521 271.407 245.12 271.091 246.188 270.391L245.636 269.554C244.812 270.094 243.449 270.407 241.464 270.415L241.474 271.415ZM246.191 270.389C247.3 269.651 247.868 268.597 247.855 267.276L246.855 267.281C246.865 268.256 246.47 268.998 245.633 269.556L246.191 270.389ZM247.855 267.276C247.845 266.344 247.526 265.565 246.856 265.008L246.22 265.776C246.623 266.111 246.848 266.589 246.855 267.281L247.855 267.276ZM246.867 265.018C246.263 264.485 245.515 264.105 244.639 263.868L244.383 264.833C245.136 265.037 245.739 265.352 246.208 265.766L246.867 265.018ZM244.655 263.872C243.81 263.614 242.704 263.377 241.347 263.157L241.193 264.144C242.528 264.36 243.584 264.589 244.368 264.829L244.655 263.872ZM241.357 263.158C239.571 262.832 238.146 262.506 237.076 262.182L236.792 263.139C237.913 263.478 239.379 263.812 241.183 264.142L241.357 263.158ZM237.087 262.185C236.071 261.852 235.199 261.299 234.464 260.524L233.74 261.209C234.59 262.106 235.606 262.75 236.781 263.135L237.087 262.185ZM234.47 260.53C233.813 259.81 233.447 258.783 233.433 257.383L232.433 257.387C232.449 258.955 232.862 260.248 233.734 261.202L234.47 260.53ZM233.433 257.383C233.416 255.7 234.093 254.328 235.505 253.236L234.89 252.444C233.246 253.716 232.413 255.375 232.433 257.387L233.433 257.383ZM235.505 253.236C236.917 252.143 238.932 251.56 241.611 251.549L241.601 250.549C238.792 250.561 236.534 251.171 234.89 252.444L235.505 253.236ZM241.611 251.549C242.992 251.543 244.378 251.727 245.768 252.102L246.023 251.136C244.55 250.739 243.075 250.543 241.601 250.549L241.611 251.549ZM245.777 252.104C247.171 252.452 248.295 252.919 249.165 253.491L249.712 252.657C248.721 252.005 247.484 251.501 246.014 251.134L245.777 252.104ZM248.997 252.837L247.719 255.236L248.602 255.71L249.88 253.311L248.997 252.837ZM248.441 255.061C246.513 253.743 244.234 253.1 241.626 253.111L241.636 254.111C244.069 254.1 246.143 254.699 247.88 255.886L248.441 255.061ZM241.626 253.111C239.677 253.119 238.121 253.467 237.029 254.226L237.603 255.048C238.457 254.454 239.778 254.118 241.636 254.111L241.626 253.111ZM237.023 254.23C235.957 254.992 235.401 256.024 235.414 257.291L236.414 257.287C236.405 256.37 236.784 255.633 237.608 255.044L237.023 254.23ZM235.414 257.291C235.424 258.246 235.739 259.056 236.392 259.666L237.073 258.937C236.651 258.543 236.421 258.011 236.414 257.287L235.414 257.291ZM236.402 259.674C237.027 260.23 237.784 260.638 238.658 260.905L238.945 259.948C238.191 259.718 237.567 259.376 237.063 258.928L236.402 259.674ZM238.674 260.909C239.51 261.136 240.65 261.372 242.087 261.619L242.251 260.634C240.827 260.389 239.722 260.159 238.93 259.944L238.674 260.909ZM242.08 261.618C243.838 261.945 245.234 262.271 246.275 262.594L246.567 261.639C245.473 261.299 244.034 260.965 242.258 260.635L242.08 261.618ZM246.275 262.594C247.26 262.9 248.101 263.424 248.806 264.169L249.531 263.485C248.707 262.613 247.716 261.996 246.567 261.639L246.275 262.594ZM248.806 264.169C249.46 264.862 249.822 265.845 249.836 267.184L250.836 267.18C250.821 265.663 250.405 264.41 249.531 263.485L248.806 264.169ZM249.836 267.184C249.854 268.948 249.139 270.341 247.654 271.405L248.239 272.219C249.978 270.973 250.857 269.28 250.836 267.18L249.836 267.184ZM247.655 271.404C246.184 272.449 244.079 273.008 241.28 273.02L241.29 274.02C244.203 274.008 246.539 273.428 248.238 272.22L247.655 271.404Z" fill="black"/>
</svg>
